<svg version="1.1" id="Layer_1" xmlns="http://www.w3.org/2000/svg" xmlns:xlink="http://www.w3.org/1999/xlink" x="0px" y="0px"
	 width="100%" viewBox="0 0 2315 639" enable-background="new 0 0 2315 639" xml:space="preserve">
<path fill="#000000" opacity="1.000000" stroke="none" 
	d="
M1487.000000,640.000000 
	C991.333313,640.000000 496.166656,640.000000 1.000000,640.000000 
	C1.000000,427.000000 1.000000,214.000000 1.000000,1.000000 
	C772.666687,1.000000 1544.333374,1.000000 2316.000000,1.000000 
	C2316.000000,214.000000 2316.000000,427.000000 2316.000000,640.000000 
	C2039.833374,640.000000 1763.666626,640.000000 1487.000000,640.000000 
M613.721313,347.059082 
	C615.833008,323.579803 615.037476,300.121796 611.638428,276.870819 
	C606.466309,241.490799 595.392456,207.968994 578.291870,176.440689 
	C561.136658,144.811630 539.478577,116.876457 512.559998,92.916695 
	C484.119843,67.602570 452.235962,48.187462 416.664581,34.637486 
	C372.612823,17.857130 327.087860,11.979222 280.291077,16.225994 
	C238.304672,20.036228 198.773956,32.177036 161.761108,52.549599 
	C124.948021,72.812218 93.448120,99.313919 67.490021,132.296539 
	C45.975861,159.632645 29.872360,190.016510 18.585527,222.882690 
	C3.508905,266.784363 -0.300031,311.907104 4.842797,357.896790 
	C9.520430,399.726471 23.022552,438.606812 44.065208,474.963470 
	C61.150410,504.482635 82.574402,530.471985 108.355438,552.729309 
	C131.160339,572.417297 156.440811,588.288330 184.024643,600.621277 
	C218.971329,616.246277 255.517014,625.054138 293.635284,626.850037 
	C327.794159,628.459473 361.448334,624.684204 394.361908,614.932068 
	C442.008270,600.814575 483.930084,576.802185 519.900635,542.536133 
	C539.155823,524.193420 555.760498,503.636810 569.704590,480.965698 
	C585.157043,455.842255 597.168457,429.128998 604.139465,400.493835 
	C608.338562,383.244873 610.478516,365.494568 613.721313,347.059082 
M1504.306396,272.992676 
	C1510.317627,273.141052 1515.476685,271.606110 1518.839722,266.076660 
	C1522.948730,259.320953 1520.501465,246.484070 1507.386230,245.300873 
	C1503.148804,244.918564 1500.940674,243.084671 1499.391846,239.166794 
	C1493.084595,223.212601 1486.457520,207.385162 1480.001221,191.489502 
	C1469.783813,166.333740 1459.612305,141.159378 1449.412354,115.996582 
	C1448.210571,113.032135 1447.111816,110.042633 1443.007446,110.053894 
	C1422.677612,110.109673 1402.346069,109.965645 1382.018311,110.186180 
	C1376.328003,110.247925 1371.771973,113.051872 1369.427612,118.557442 
	C1365.487549,127.810753 1371.465942,136.845428 1382.405151,137.780579 
	C1387.868652,138.247635 1393.395142,138.002701 1398.893311,138.027893 
	C1402.805664,138.045822 1403.998779,139.640991 1402.434937,143.379547 
	C1399.221313,151.062134 1396.124634,158.794022 1393.025024,166.523758 
	C1383.352173,190.645508 1373.767456,214.803070 1363.933716,238.858902 
	C1362.983643,241.182999 1360.813110,244.225418 1358.739136,244.652740 
	C1351.477417,246.148849 1344.769043,247.826157 1342.070190,256.386536 
	C1340.031616,250.171600 1336.046875,246.893387 1330.419800,245.746185 
	C1326.146973,244.875061 1324.936768,242.393478 1324.950684,238.280029 
	C1325.056396,207.117371 1325.069824,175.953918 1324.936035,144.791458 
	C1324.917480,140.460526 1326.440308,138.025238 1330.521606,136.618454 
	C1335.498901,134.902786 1338.436401,131.309204 1338.908569,125.881081 
	C1339.759033,116.103859 1334.683838,110.457550 1324.105957,110.113464 
	C1315.116089,109.821037 1306.095825,110.321518 1297.116699,109.892479 
	C1291.562744,109.627090 1288.669189,111.807823 1286.541382,116.770531 
	C1278.469482,135.595932 1270.104004,154.295807 1261.803101,173.022583 
	C1259.230591,178.825974 1256.514648,184.565735 1253.325073,191.508636 
	C1251.804565,188.346085 1250.919434,186.596375 1250.111938,184.811539 
	C1239.744751,161.898849 1229.310425,139.015991 1219.098267,116.034309 
	C1217.140137,111.627602 1214.495117,109.618942 1209.579346,109.924065 
	C1203.935303,110.274406 1198.249634,109.889709 1192.587280,110.033577 
	C1187.447266,110.164162 1182.187500,109.968758 1177.209595,111.011230 
	C1170.410156,112.435158 1167.527588,116.452469 1167.116821,122.945877 
	C1166.723145,129.165176 1169.382568,134.117004 1175.371948,136.402008 
	C1179.672363,138.042618 1181.172119,140.504395 1181.153198,144.984344 
	C1181.022095,175.980164 1181.023560,206.977051 1181.149658,237.972900 
	C1181.168213,242.529388 1179.671021,244.926987 1175.085083,246.109650 
	C1167.488281,248.068802 1164.033691,253.220963 1164.720337,260.348480 
	C1165.423950,267.651611 1170.144775,272.308441 1177.876343,272.833801 
	C1182.688721,273.160767 1187.536743,272.997894 1192.368774,272.993683 
	C1203.200317,272.984253 1214.039307,273.170654 1224.860962,272.826141 
	C1232.678589,272.577332 1237.566895,267.554871 1237.920776,260.380341 
	C1238.304443,252.603867 1234.266479,247.350555 1226.486084,245.900009 
	C1223.397949,245.324280 1220.215698,245.143738 1217.067139,245.024231 
	C1210.800537,244.786331 1210.040039,244.214966 1210.026611,238.112473 
	C1209.978516,216.448441 1209.997070,194.784241 1210.025024,173.120148 
	C1210.026611,171.828506 1210.332520,170.537262 1210.635986,168.152130 
	C1211.698242,169.858627 1212.109375,170.377426 1212.372559,170.962769 
	C1220.500244,189.037460 1228.874390,207.008224 1236.596924,225.254730 
	C1239.564453,232.266327 1243.283691,236.362915 1251.406250,235.069443 
	C1254.496094,234.577393 1257.729370,234.872787 1260.891602,234.979660 
	C1264.391235,235.097931 1266.364502,233.400696 1267.732300,230.294434 
	C1276.187988,211.090408 1284.733643,191.925995 1293.282227,172.763107 
	C1293.701538,171.822906 1294.429443,171.020355 1295.013672,170.153687 
	C1295.343750,170.236069 1295.673950,170.318451 1296.004028,170.400833 
	C1296.004028,172.348862 1296.004150,174.296890 1296.004150,176.244919 
	C1296.004517,194.742767 1296.004883,213.240601 1296.004639,231.738449 
	C1296.004395,244.028732 1295.994385,243.934052 1283.815186,245.158524 
	C1278.433105,245.699615 1273.154175,246.939926 1270.126587,252.142166 
	C1264.543213,261.735474 1270.814331,272.604248 1282.377319,272.880829 
	C1295.701782,273.199493 1309.042480,272.801575 1322.369141,273.065521 
	C1330.893433,273.234314 1338.339722,271.882355 1342.201782,262.079163 
	C1344.984131,268.857391 1349.324463,272.696106 1355.720703,272.793304 
	C1371.879761,273.038849 1388.059082,273.276062 1404.203003,272.722900 
	C1414.602051,272.366577 1420.325195,261.543030 1415.457153,252.674591 
	C1412.260010,246.850464 1406.481323,245.711868 1400.545776,245.078293 
	C1398.184204,244.826202 1395.816162,244.634995 1392.827393,244.358353 
	C1393.894653,241.328125 1394.581787,239.137894 1395.429810,237.011841 
	C1398.622314,229.007019 1398.641846,229.004318 1407.415039,229.000778 
	C1424.079712,228.994034 1440.747681,229.183472 1457.407471,228.898849 
	C1462.965820,228.803879 1466.328003,230.580139 1467.567505,236.074997 
	C1467.858032,237.362686 1468.408936,238.608856 1468.965942,239.815994 
	C1470.682861,243.537521 1469.410034,244.926102 1465.450439,245.064438 
	C1462.156616,245.179504 1458.511597,245.209290 1455.703369,246.626678 
	C1452.510864,248.238144 1448.980957,250.828262 1447.515625,253.906113 
	C1443.122314,263.134521 1449.685669,272.677734 1460.360107,272.886475 
	C1474.686401,273.166656 1489.021729,272.981934 1504.306396,272.992676 
M1324.000732,448.500000 
	C1324.000366,469.492920 1323.836426,490.487976 1324.110107,511.477325 
	C1324.182251,517.013062 1322.722656,519.959900 1316.986206,521.343140 
	C1310.164917,522.987915 1306.559814,528.990051 1307.178955,535.665039 
	C1307.763184,541.965698 1312.481445,547.458557 1319.259644,547.645020 
	C1335.737183,548.098206 1352.242676,548.086304 1368.721680,547.666748 
	C1375.444702,547.495544 1380.461182,541.522766 1380.843506,535.114258 
	C1381.232788,528.589600 1377.497559,523.150452 1370.864136,521.338623 
	C1367.695923,520.473267 1364.314087,520.175415 1361.013062,520.053406 
	C1353.469971,519.774780 1353.017334,519.487183 1353.008179,512.063843 
	C1352.981812,490.404388 1352.991821,468.744873 1353.010254,447.085388 
	C1353.011597,445.493500 1353.195190,443.901733 1353.294067,442.309906 
	C1359.612915,450.119629 1364.945190,458.253998 1370.185181,466.447296 
	C1386.515259,491.981384 1402.854858,517.509644 1419.067261,543.118347 
	C1421.275879,546.607056 1423.926025,548.274780 1428.060913,548.036011 
	C1431.879883,547.815430 1435.722168,547.999573 1439.554199,547.999329 
	C1450.900879,547.998596 1450.905029,547.997437 1450.905762,536.884949 
	C1450.908569,498.397736 1450.985107,459.910156 1450.819214,421.423676 
	C1450.796509,416.160400 1452.080688,413.238068 1457.693481,411.975647 
	C1464.167114,410.519653 1466.974609,405.833893 1466.953735,398.925690 
	C1466.933350,392.208618 1464.219116,388.297729 1457.846313,386.230316 
	C1455.814209,385.571106 1453.618286,385.107483 1451.493774,385.093140 
	C1437.332764,384.997498 1423.170410,385.000854 1409.009399,385.101318 
	C1406.882446,385.116425 1404.688843,385.582825 1402.649780,386.230011 
	C1397.316406,387.922699 1394.343140,392.092590 1394.064575,397.852905 
	C1393.733765,404.695923 1395.828125,409.124908 1401.593872,411.024384 
	C1405.753296,412.394714 1410.347778,412.682190 1414.777832,412.937805 
	C1421.279419,413.312897 1421.965332,413.710510 1421.976807,420.229736 
	C1422.015991,442.388977 1422.002686,464.548309 1421.970337,486.707581 
	C1421.968262,488.182800 1421.640625,489.657593 1421.337280,492.197144 
	C1419.784180,490.276581 1418.973633,489.450775 1418.365967,488.495819 
	C1411.033081,476.974915 1403.750732,465.421875 1396.415039,453.902740 
	C1382.907837,432.692230 1369.447388,411.450989 1355.744385,390.367523 
	C1354.281738,388.117096 1351.398193,385.432709 1349.070312,385.331604 
	C1337.598877,384.833405 1326.081543,384.842285 1314.602539,385.269043 
	C1307.528442,385.531982 1303.015747,389.898926 1301.976196,395.988434 
	C1300.318604,405.697266 1305.564697,411.995300 1316.070679,412.909058 
	C1323.958496,413.595062 1323.975708,413.595062 1323.994873,421.508636 
	C1324.015747,430.172394 1324.000366,438.836212 1324.000732,448.500000 
M1711.115967,256.929840 
	C1710.936035,268.048096 1715.479248,272.907196 1726.585571,272.954315 
	C1750.575806,273.056061 1774.566528,272.998749 1798.557129,272.999603 
	C1816.550049,273.000244 1834.543457,272.909576 1852.535400,273.039368 
	C1857.252808,273.073425 1859.153687,271.205750 1859.036255,266.507599 
	C1858.848999,259.015350 1859.009888,251.514771 1858.995361,244.017776 
	C1858.983032,237.687500 1859.183594,231.343185 1858.831543,225.030655 
	C1858.395264,217.210373 1853.556152,212.465866 1846.266968,212.068054 
	C1838.469238,211.642502 1833.194702,215.570084 1831.947021,223.543488 
	C1831.129395,228.768906 1831.134033,234.139587 1831.007446,239.450867 
	C1830.919189,243.157822 1829.395386,244.983658 1825.593750,244.975845 
	C1806.101807,244.935928 1786.609741,244.948837 1767.117798,244.950516 
	C1763.903442,244.950806 1762.069946,243.500381 1762.066650,240.161331 
	C1762.056763,230.332687 1762.053345,220.503967 1762.083374,210.675385 
	C1762.093628,207.309494 1764.063354,205.943024 1767.216919,205.934402 
	C1771.381348,205.923035 1775.546021,205.949020 1779.710327,205.920563 
	C1783.178711,205.896851 1784.908813,207.556213 1785.087402,211.044312 
	C1785.163086,212.523880 1785.555298,214.003036 1785.932983,215.448608 
	C1787.707153,222.239746 1793.584473,226.450592 1800.394409,225.860229 
	C1807.328857,225.259064 1812.640747,220.311813 1812.793091,213.135132 
	C1813.100708,198.649277 1813.157715,184.144165 1812.755737,169.662628 
	C1812.530884,161.561676 1806.937622,156.976654 1798.922485,157.048767 
	C1791.089966,157.119232 1786.056519,162.021362 1785.162476,171.202362 
	C1784.750854,175.428299 1783.030640,177.166306 1778.888916,177.007141 
	C1775.062622,176.860092 1771.226440,176.929947 1767.395264,176.965927 
	C1763.968262,176.998108 1762.041016,175.545486 1762.046875,171.937714 
	C1762.062744,162.275391 1762.052490,152.613037 1762.057739,142.950684 
	C1762.059570,139.661026 1763.740845,138.056244 1767.005737,138.056335 
	C1784.664917,138.056793 1802.324219,138.060669 1819.983398,138.052673 
	C1823.613525,138.051041 1824.985596,140.040070 1824.972290,143.442001 
	C1824.957275,147.272903 1824.794800,151.128891 1825.160034,154.929443 
	C1825.674683,160.287094 1826.649780,165.603180 1831.856689,168.741959 
	C1841.342041,174.459793 1852.573730,168.335999 1852.871460,156.957993 
	C1853.206787,144.138214 1852.999268,131.303680 1852.988403,118.475594 
	C1852.981567,110.381485 1852.616943,110.013268 1844.512451,110.010323 
	C1805.860962,109.996277 1767.209595,109.999863 1728.558105,110.014381 
	C1726.562500,110.015137 1724.536743,109.984482 1722.576538,110.293999 
	C1715.226562,111.454475 1711.138672,116.277802 1711.045776,123.689957 
	C1710.937378,132.338409 1715.894287,137.188461 1725.608765,137.938797 
	C1732.666870,138.483978 1732.979004,138.736664 1732.984863,145.546600 
	C1733.011108,176.201187 1733.010864,206.855850 1732.984375,237.510437 
	C1732.978638,244.145660 1732.656006,244.373550 1726.062134,245.103867 
	C1719.001709,245.885880 1713.055420,248.253235 1711.115967,256.929840 
M2042.181519,487.156891 
	C2042.436523,488.293579 2042.648315,489.442047 2042.953735,490.565002 
	C2044.746094,497.152618 2050.391602,501.284698 2057.013428,500.881866 
	C2063.977051,500.458191 2069.564453,495.601593 2069.742676,488.514465 
	C2070.110840,473.865143 2070.154541,459.191650 2069.738770,444.544952 
	C2069.509521,436.473175 2063.845215,431.934631 2055.803955,432.049072 
	C2048.195801,432.157349 2042.981689,437.070770 2042.217773,445.823456 
	C2041.800293,450.609100 2039.773438,452.265320 2035.269897,452.024902 
	C2031.614624,451.829865 2027.941406,451.930969 2024.276733,451.960815 
	C2020.783691,451.989227 2019.031372,450.364227 2019.039307,446.819214 
	C2019.060547,437.323364 2019.074951,427.827240 2019.025635,418.331573 
	C2019.005615,414.483948 2020.959961,413.005157 2024.624023,413.014343 
	C2041.950317,413.057739 2059.276611,413.060059 2076.603027,413.024384 
	C2080.411865,413.016541 2082.024902,414.854034 2081.982910,418.561096 
	C2081.939209,422.391205 2081.790283,426.249695 2082.168213,430.047913 
	C2082.701172,435.403473 2083.707275,440.709442 2088.958984,443.802368 
	C2098.508789,449.426514 2109.597900,443.252319 2109.880615,431.838989 
	C2110.194824,419.184784 2109.998291,406.517517 2109.991211,393.855927 
	C2109.986084,385.210449 2109.777100,385.009308 2100.893311,385.007050 
	C2062.741455,384.997375 2024.589600,384.998779 1986.437744,385.010284 
	C1984.274170,385.010925 1982.085815,384.952454 1979.951660,385.239655 
	C1972.364990,386.260590 1968.104736,391.190338 1968.045776,398.809967 
	C1967.979126,407.413879 1972.968262,412.217102 1982.728638,412.945740 
	C1989.677490,413.464447 1989.981079,413.722198 1989.986694,420.666687 
	C1990.011353,451.154846 1990.009521,481.643005 1989.989014,512.131165 
	C1989.984253,519.178345 1989.745483,519.350281 1982.943115,520.123596 
	C1981.132446,520.329407 1979.313354,520.686646 1977.568848,521.210144 
	C1971.192017,523.123779 1967.883057,527.885010 1968.051758,534.716248 
	C1968.222046,541.615356 1971.671997,546.032288 1978.423706,547.455261 
	C1980.997681,547.997742 1983.719482,547.975220 1986.374023,547.977661 
	C2021.360474,548.009338 2056.346924,548.000488 2091.333252,547.999084 
	C2097.497559,547.998840 2103.664795,547.860596 2109.824951,548.021484 
	C2114.342529,548.139526 2116.136230,546.146851 2116.022949,541.717163 
	C2115.865234,535.557068 2116.013184,529.389648 2115.995117,523.225464 
	C2115.972412,515.396057 2116.210938,507.550751 2115.787842,499.742004 
	C2115.368164,491.993683 2110.342285,487.362701 2102.976318,487.060577 
	C2095.396729,486.749695 2090.177979,490.637268 2088.985596,498.337524 
	C2088.150879,503.729126 2088.193115,509.264709 2087.980713,514.741272 
	C2087.858887,517.881226 2086.707764,519.912415 2083.301514,519.916016 
	C2063.476807,519.936646 2043.651978,519.936401 2023.827148,519.930115 
	C2020.482422,519.929077 2019.043457,518.079224 2019.046753,514.870483 
	C2019.056763,505.208069 2019.049438,495.545685 2019.062012,485.883270 
	C2019.066284,482.609039 2020.763428,480.970367 2024.008667,480.947205 
	C2028.172974,480.917511 2032.338379,480.969879 2036.501831,480.903870 
	C2040.233154,480.844727 2042.057129,482.637421 2042.181519,487.156891 
M835.002197,458.500000 
	C835.002136,474.831970 835.002625,491.163910 835.001892,507.495880 
	C835.001404,517.931030 835.000610,517.931030 825.180237,520.893677 
	C818.070679,523.038574 814.637756,528.006042 815.076843,535.513794 
	C815.471985,542.272461 819.599365,547.392761 826.691345,547.612122 
	C842.502869,548.101135 858.348572,548.088562 874.161865,547.634705 
	C881.082520,547.436035 885.530640,541.818237 885.885925,534.929993 
	C886.226501,528.324951 882.415100,523.044861 875.821594,521.251648 
	C873.585999,520.643616 871.247070,520.113220 868.950989,520.094849 
	C864.737671,520.061096 862.928101,518.245483 862.986755,514.013977 
	C863.111389,505.016479 863.105164,496.015015 862.989197,487.017273 
	C862.934998,482.809875 864.682373,480.962250 868.943726,480.987457 
	C884.275330,481.078156 899.608398,481.096588 914.939514,480.975769 
	C919.548035,480.939453 921.107056,483.064728 921.026245,487.399597 
	C920.883423,495.062927 921.004822,502.730988 920.999023,510.397064 
	C920.992554,518.963562 920.983398,518.956970 912.681152,520.257690 
	C911.695923,520.412048 910.722290,520.658813 909.755493,520.909668 
	C901.618408,523.020447 898.457642,527.614136 899.074280,536.412231 
	C899.523010,542.813354 904.478455,547.651184 911.990234,547.807373 
	C926.815002,548.115723 941.653809,548.089172 956.480286,547.829285 
	C963.446716,547.707214 968.455200,543.146606 969.660889,536.951904 
	C971.300476,528.527527 965.985291,521.781372 956.007324,520.287781 
	C952.080261,519.700012 949.962097,518.468140 949.973328,514.133911 
	C950.056091,482.303253 950.040710,450.472260 949.986755,418.641479 
	C949.980896,415.179596 951.325623,413.201874 954.608704,411.873352 
	C962.158630,408.818146 964.913879,403.855530 963.821899,396.241547 
	C962.954346,390.193146 958.297363,385.616791 950.767944,385.333557 
	C937.624573,384.839142 924.434937,384.809174 911.293152,385.317993 
	C903.112366,385.634705 898.839050,391.203369 899.037537,399.331482 
	C899.241211,407.672058 904.135864,412.196930 913.762390,412.943878 
	C920.687134,413.481140 920.959351,413.732147 920.987854,420.704468 
	C921.023315,429.370300 920.882446,438.038177 921.026794,446.701660 
	C921.100464,451.121185 919.362854,453.059235 914.836914,453.023590 
	C899.672424,452.904053 884.505371,452.884003 869.341431,453.036743 
	C864.509827,453.085388 862.863831,450.965485 862.964050,446.378326 
	C863.138733,438.382843 862.995300,430.380646 863.004211,422.381256 
	C863.013977,413.586243 863.023315,413.586182 871.567078,412.921082 
	C879.935120,412.269592 885.527405,407.095642 885.888000,399.671509 
	C886.252319,392.170563 881.333252,385.909729 872.842590,385.480621 
	C859.387268,384.800598 845.854858,384.898407 832.389465,385.473236 
	C825.431396,385.770233 820.854980,391.387543 820.239441,398.037262 
	C819.691650,403.954010 823.259766,409.764984 829.579346,411.848755 
	C833.904297,413.274811 835.109680,415.790405 835.053955,420.003571 
	C834.888550,432.500427 834.999390,445.000916 835.002197,458.500000 
M1054.571045,541.933472 
	C1059.673218,531.567383 1055.893799,523.257629 1044.711060,520.821716 
	C1041.337891,520.086914 1037.779297,520.088989 1034.298950,519.993408 
	C1030.827637,519.898132 1029.024048,518.409180 1029.032349,514.852112 
	C1029.050415,507.022858 1029.068237,499.193329 1029.015137,491.364380 
	C1028.989258,487.539703 1030.899902,485.973236 1034.585449,486.016998 
	C1040.248413,486.084290 1045.921509,485.859711 1051.572144,486.133392 
	C1053.798096,486.241150 1056.424805,486.787842 1058.095825,488.110992 
	C1064.850342,493.459473 1072.191772,498.438568 1077.678711,504.936890 
	C1088.287598,517.501160 1097.714600,531.058594 1107.835693,544.045288 
	C1109.207397,545.805359 1111.687256,547.587708 1113.772339,547.739990 
	C1120.065186,548.199341 1126.445190,548.232056 1132.737305,547.739990 
	C1140.881226,547.103027 1145.500610,541.149231 1144.894653,533.000183 
	C1144.318970,525.258240 1139.856689,521.456421 1130.382812,520.001099 
	C1127.968140,519.630066 1124.792114,518.697754 1123.575806,516.921082 
	C1114.525269,503.702118 1105.132568,490.811707 1093.380737,479.804077 
	C1091.466309,478.010742 1091.774414,476.497192 1093.948242,474.968964 
	C1097.755005,472.292786 1101.506714,469.520996 1105.120483,466.590637 
	C1123.267212,451.875275 1125.020996,422.165741 1109.402344,404.779175 
	C1097.012329,390.986481 1081.323975,385.554474 1063.550415,385.095398 
	C1047.734985,384.686859 1031.900757,384.994293 1016.074829,385.003967 
	C1007.912415,385.008972 999.737732,384.782257 991.590637,385.149353 
	C981.475464,385.605103 976.258240,392.525360 978.047363,402.440399 
	C979.166931,408.644897 984.218445,412.289429 992.597473,412.938019 
	C999.665588,413.485138 999.978882,413.736603 999.984802,420.534637 
	C1000.011597,451.186951 1000.011047,481.839264 999.984619,512.491577 
	C999.978943,519.130493 999.662170,519.272522 993.086121,520.136230 
	C987.954834,520.810181 982.732849,521.545776 979.754639,526.700378 
	C973.838196,536.940796 980.034851,547.694031 992.327637,547.890991 
	C1008.982117,548.157837 1025.655884,548.301636 1042.293945,547.716125 
	C1046.302979,547.575073 1050.203735,544.358826 1054.571045,541.933472 
M2255.937012,464.499207 
	C2250.382568,462.276947 2244.986084,459.448425 2239.242432,457.952698 
	C2225.228760,454.303406 2210.963379,451.604858 2196.996094,447.801422 
	C2192.401855,446.550323 2187.833740,443.717743 2184.275146,440.484039 
	C2178.389648,435.135742 2178.173340,428.061523 2182.719971,421.527008 
	C2187.714355,414.349091 2195.105225,411.233215 2203.373779,409.670502 
	C2223.708252,405.827301 2238.318848,414.086823 2244.958252,433.211853 
	C2247.236084,439.772614 2251.807129,443.070618 2258.396973,442.907837 
	C2264.718018,442.751678 2270.345215,438.942200 2270.896729,432.189972 
	C2271.841553,420.629272 2272.330811,408.868408 2271.266357,397.352905 
	C2270.224609,386.080872 2259.995605,382.079559 2249.998535,387.605347 
	C2248.365479,388.507965 2245.615234,389.091949 2244.154297,388.333923 
	C2232.712891,382.397156 2220.581543,380.562134 2207.859131,380.957825 
	C2191.010742,381.481750 2176.386963,386.735901 2164.355957,399.050903 
	C2142.897949,421.015472 2148.529541,456.377289 2175.872314,470.464508 
	C2188.695312,477.070984 2202.806152,478.843597 2216.553955,482.124298 
	C2224.903076,484.116669 2233.540283,486.149933 2241.063232,490.059845 
	C2252.116699,495.804932 2252.436768,507.942657 2242.296387,515.153748 
	C2228.750488,524.786743 2213.544434,526.101440 2197.884766,521.989807 
	C2186.152344,518.909302 2175.648926,514.197205 2172.319580,500.417633 
	C2170.897217,494.530548 2163.799805,491.395538 2157.784668,492.260834 
	C2151.618652,493.147827 2146.657227,497.962830 2146.328857,504.933258 
	C2145.843994,515.237122 2145.588135,525.629578 2146.386963,535.894653 
	C2147.214111,546.524231 2158.620117,551.793762 2167.172607,545.486450 
	C2171.651611,542.183350 2174.912842,543.291382 2179.024902,545.004639 
	C2201.021973,554.169495 2223.351318,554.990417 2245.756592,546.785583 
	C2257.158691,542.609985 2266.867188,535.592163 2272.772217,524.850403 
	C2284.343262,503.801331 2277.031250,477.712128 2255.937012,464.499207 
M1297.007568,445.577911 
	C1290.025757,415.548798 1272.446777,394.019073 1243.250122,384.288666 
	C1212.518188,374.046600 1180.665771,384.752441 1159.807251,414.630127 
	C1142.215698,439.828430 1139.730469,467.801697 1148.871216,496.698456 
	C1156.607788,521.157043 1172.855225,538.932922 1196.740234,547.729004 
	C1227.997803,559.240112 1258.494019,549.908630 1280.851685,522.038391 
	C1298.811768,499.649872 1301.869019,473.815277 1297.007568,445.577911 
M1580.579956,245.002838 
	C1577.275391,245.298523 1573.891357,245.239487 1570.682129,245.959854 
	C1562.708252,247.749664 1558.572021,253.192078 1559.164551,260.513702 
	C1559.746338,267.702759 1565.388062,272.858246 1573.571655,272.905823 
	C1598.063843,273.048218 1622.557983,273.054779 1647.049927,272.886871 
	C1655.101440,272.831696 1660.181885,268.196350 1660.876099,261.201355 
	C1661.665527,253.246841 1657.881958,247.518143 1649.715454,246.112915 
	C1643.540649,245.050430 1637.139771,245.249863 1630.834839,245.010483 
	C1624.885498,244.784576 1624.148438,244.165924 1624.023682,238.377655 
	C1623.962524,235.546341 1624.000610,232.712784 1624.000610,229.880249 
	C1624.001099,201.887909 1623.989014,173.895569 1624.013916,145.903259 
	C1624.020386,138.508331 1624.527100,138.055115 1632.053711,138.004883 
	C1635.385986,137.982635 1638.718506,137.997787 1642.050903,137.998215 
	C1653.997070,137.999741 1653.986206,138.000107 1654.004395,150.005630 
	C1654.013916,156.336655 1653.820435,162.681274 1654.166748,168.995163 
	C1654.596680,176.832733 1659.562012,181.866241 1666.951050,182.600037 
	C1673.891968,183.289337 1679.264771,179.101395 1681.067505,171.274033 
	C1681.695679,168.546509 1681.938354,165.677292 1681.954346,162.870499 
	C1682.039062,148.041718 1682.011597,133.212158 1681.989014,118.382919 
	C1681.976685,110.366051 1681.620361,110.011238 1673.419189,110.008751 
	C1631.430664,109.995987 1589.442261,110.003220 1547.453735,110.006706 
	C1546.287598,110.006798 1545.121582,110.055161 1543.955444,110.060783 
	C1540.664917,110.076645 1539.067627,111.747948 1539.058472,115.012894 
	C1539.048340,118.678329 1539.001831,122.343719 1539.004150,126.009109 
	C1539.012939,140.005112 1538.818237,154.005814 1539.120239,167.995667 
	C1539.364014,179.281876 1548.892212,185.623230 1558.752686,181.335175 
	C1565.225098,178.520477 1566.506470,172.467407 1566.845215,166.379990 
	C1567.242676,159.236237 1566.942017,152.055527 1567.024048,144.891769 
	C1567.093994,138.781021 1567.816162,138.091080 1574.066040,138.018112 
	C1578.897461,137.961685 1583.730225,137.969818 1588.561768,138.012665 
	C1595.348877,138.072845 1595.972168,138.663971 1595.984253,145.517700 
	C1596.019409,165.512161 1596.001953,185.506744 1595.999634,205.501266 
	C1595.998291,216.664825 1595.914795,227.829025 1596.013916,238.991638 
	C1596.051270,243.202911 1594.306885,245.171249 1590.050293,245.000015 
	C1587.222778,244.886261 1584.386230,244.993820 1580.579956,245.002838 
M710.255798,276.322388 
	C729.584839,278.265869 748.526855,277.254272 766.430176,268.737091 
	C775.015381,264.652802 782.241699,258.798767 787.555115,250.905746 
	C791.027649,245.747360 790.885010,240.155182 787.456787,234.920853 
	C784.041199,229.705750 778.711243,227.754242 773.090759,229.436615 
	C769.168579,230.610641 765.369629,233.375534 762.406311,236.324829 
	C756.487610,242.215454 749.553650,245.679916 741.530334,247.317551 
	C730.972107,249.472580 720.384399,249.754883 709.787354,247.658981 
	C689.005310,243.548706 673.953308,230.093185 671.658325,211.216690 
	C670.204895,199.262024 670.005249,186.739792 671.855164,174.879517 
	C676.656250,144.100143 705.229126,127.542931 735.581055,136.732986 
	C747.268555,140.271759 756.229248,146.127777 758.566223,159.490768 
	C759.919983,167.231552 765.468140,170.936172 772.391724,170.666794 
	C779.250061,170.399963 784.411926,166.637222 784.968384,158.838898 
	C785.840210,146.622055 786.286865,134.172241 784.894104,122.053185 
	C783.488525,109.822853 771.724121,106.122475 762.115112,113.998650 
	C759.696350,115.981209 758.068237,115.902298 755.538208,114.502472 
	C740.677856,106.280403 724.466858,104.225250 708.054260,106.470146 
	C674.559143,111.051567 650.051270,134.987122 643.940979,168.258759 
	C641.034058,184.087463 641.008301,200.093872 643.414978,215.983658 
	C645.905334,232.426270 654.326355,246.001648 666.168579,257.221924 
	C678.167969,268.591064 693.199585,273.898315 710.255798,276.322388 
M1671.177612,484.973938 
	C1671.113647,476.480682 1670.976440,467.987213 1670.998657,459.494171 
	C1671.090698,424.300049 1700.632324,401.886261 1734.428345,411.380737 
	C1746.654663,414.815552 1756.250977,420.694366 1758.659912,434.770233 
	C1759.941895,442.261597 1765.350952,445.791962 1772.185303,445.666687 
	C1779.015503,445.541443 1784.380859,441.734436 1784.920776,434.040619 
	C1785.789551,421.660400 1786.219727,409.051422 1784.825806,396.767059 
	C1783.481323,384.917664 1771.615967,381.244598 1762.266968,388.858490 
	C1759.962280,390.735260 1758.363037,391.099579 1755.712158,389.613739 
	C1740.890869,381.305939 1724.683472,379.292206 1708.256470,381.432617 
	C1674.965088,385.770477 1650.077148,409.922882 1643.971680,443.054535 
	C1641.055054,458.882111 1640.737427,474.938354 1643.442261,490.768158 
	C1646.943115,511.258575 1657.338257,528.242798 1675.183228,538.885193 
	C1704.378540,556.296570 1735.244751,556.503540 1766.316895,543.711426 
	C1775.093018,540.098450 1782.159912,533.856873 1787.505615,525.987793 
	C1791.001709,520.841553 1790.901123,515.254395 1787.510132,510.000427 
	C1784.132324,504.766693 1778.821533,502.761200 1773.184814,504.422699 
	C1769.259277,505.579712 1765.397217,508.289246 1762.481201,511.261200 
	C1755.958618,517.908813 1748.091553,521.500732 1739.170532,522.723450 
	C1732.605835,523.623291 1725.885986,524.151367 1719.280151,523.853271 
	C1695.345459,522.773132 1675.062988,508.801300 1671.177612,484.973938 
M720.130920,551.520020 
	C738.236633,552.932556 756.064819,552.304626 773.065979,544.820312 
	C782.591797,540.626892 790.611694,534.560547 796.499084,525.991577 
	C800.021179,520.865295 799.902588,515.261902 796.514221,510.006409 
	C793.139160,504.771606 787.810120,502.718750 782.197266,504.431091 
	C778.130676,505.671692 774.774658,509.151367 771.004089,511.473999 
	C765.551208,514.832947 760.378357,519.209900 754.433594,521.095459 
	C739.797485,525.737854 724.794800,525.246277 710.203064,520.384705 
	C691.372559,514.110901 680.062439,498.096069 679.995972,478.381866 
	C679.974060,471.885681 679.966064,465.389313 679.992859,458.893188 
	C680.101257,432.579529 696.701233,413.135376 722.803040,409.438477 
	C734.361633,407.801392 745.227478,410.946167 755.504089,416.339355 
	C763.429871,420.498779 765.868103,427.867767 767.947266,435.812469 
	C769.693359,442.484680 774.824646,445.851044 781.284851,445.666870 
	C787.814880,445.480713 793.235291,441.900238 793.725281,434.919922 
	C794.617249,422.212006 795.169922,409.281677 793.791504,396.670685 
	C792.495972,384.818085 780.601257,381.234924 771.194275,388.925140 
	C768.838745,390.850769 767.222046,391.005157 764.629211,389.560669 
	C749.789612,381.293610 733.580566,379.261200 717.160461,381.449768 
	C683.775269,385.899536 659.068787,409.949341 652.956970,443.150238 
	C650.043152,458.978455 649.900696,475.003174 652.425171,490.869873 
	C655.170105,508.122375 663.989563,522.230713 677.017273,533.712402 
	C689.081970,544.345398 703.669800,549.062805 720.130920,551.520020 
M949.575928,202.835022 
	C944.301331,206.232788 943.335815,211.685379 943.107788,217.243729 
	C942.827881,224.065277 943.045959,230.906128 942.984436,237.738068 
	C942.925537,244.284668 942.295776,244.957947 935.804016,244.978912 
	C920.972778,245.026825 906.141174,245.024826 891.309875,244.980988 
	C884.729858,244.961533 884.031921,244.299240 884.024597,237.850372 
	C883.989563,207.021027 883.990845,176.191605 884.020996,145.362259 
	C884.027527,138.637558 884.677856,138.198151 891.595825,137.969131 
	C897.561035,137.771637 903.650879,137.935089 909.439697,136.743912 
	C915.593567,135.477646 919.017578,129.861923 918.903625,123.641052 
	C918.792053,117.549217 914.915771,112.541168 908.723633,111.050903 
	C905.843750,110.357803 902.804688,110.070030 899.834778,110.050194 
	C885.004028,109.951126 870.172180,109.993752 855.340759,110.003929 
	C849.008667,110.008278 842.665344,109.826256 836.347046,110.135475 
	C826.636902,110.610695 821.665771,115.968964 822.062500,125.027107 
	C822.397278,132.669830 827.491821,137.332932 836.475830,137.872101 
	C841.127075,138.151245 845.804871,138.058258 850.469666,138.016068 
	C854.195435,137.982376 855.982361,139.637497 855.979187,143.427429 
	C855.952209,175.423050 855.946777,207.418732 855.993591,239.414322 
	C855.999573,243.509201 854.023926,245.074890 850.127991,245.000443 
	C845.964294,244.920837 841.652161,244.375763 837.669983,245.246521 
	C833.304321,246.201126 828.532898,247.697723 825.219482,250.482498 
	C820.685059,254.293396 821.122375,260.095398 823.310486,265.310089 
	C825.872986,271.416962 831.279114,272.957397 837.278015,272.962128 
	C879.605896,272.995422 921.933777,273.002472 964.261658,272.969879 
	C970.164490,272.965332 970.949341,272.168396 970.968506,266.280243 
	C971.022583,249.615936 971.112366,232.949921 970.932495,216.287323 
	C970.797302,203.758514 962.078430,198.059326 949.575928,202.835022 
M1870.000000,457.500000 
	C1870.002075,445.171692 1869.974365,432.843292 1870.017700,420.515106 
	C1870.041870,413.661499 1870.655762,413.182190 1877.439575,412.978516 
	C1883.243774,412.804291 1889.159302,413.025513 1894.810669,411.946045 
	C1901.288696,410.708771 1904.951050,405.191559 1904.903076,398.807800 
	C1904.855835,392.519745 1900.878906,387.551392 1894.410400,385.949341 
	C1892.328003,385.433533 1890.145996,385.071503 1888.008301,385.065063 
	C1866.684082,385.000641 1845.359619,385.024139 1824.035156,385.029663 
	C1823.203125,385.029877 1822.367188,385.059784 1821.539795,385.143158 
	C1812.989746,386.004395 1808.261475,390.633728 1808.052979,398.328827 
	C1807.828857,406.598785 1812.003174,411.581390 1820.788696,412.659088 
	C1825.555420,413.243805 1830.433838,412.907135 1835.261108,413.013397 
	C1841.161865,413.143250 1841.964722,413.835083 1841.972900,419.714539 
	C1842.016113,450.868225 1842.015381,482.022003 1841.974609,513.175720 
	C1841.966675,519.234131 1841.173706,519.764221 1834.872559,520.027466 
	C1829.076172,520.269470 1823.182007,520.240295 1817.531860,521.351562 
	C1811.516724,522.534546 1808.242798,527.370789 1808.055054,533.264954 
	C1807.759766,542.533875 1812.986328,547.859253 1823.019409,547.933777 
	C1842.510254,548.078430 1862.002930,547.996338 1881.494751,547.998718 
	C1904.318604,548.001526 1927.142578,547.974731 1949.966431,548.010376 
	C1953.803467,548.016418 1957.007935,547.643982 1956.984619,542.577820 
	C1956.903564,524.919373 1957.145874,507.256531 1956.829102,489.603180 
	C1956.667358,480.592285 1951.100952,475.815948 1942.341309,476.052094 
	C1934.292480,476.269104 1929.649902,481.337921 1929.154907,491.144653 
	C1928.802490,498.125061 1929.043091,505.134827 1928.994141,512.131348 
	C1928.943237,519.391724 1928.429565,519.966980 1921.414917,519.985168 
	C1906.754395,520.023254 1892.093628,520.024719 1877.433105,519.982910 
	C1870.652466,519.963562 1870.032593,519.336792 1870.018188,512.477600 
	C1869.980347,494.485138 1870.001953,476.492523 1870.000000,457.500000 
M1059.004639,243.383301 
	C1056.989136,243.919754 1054.985718,244.858978 1052.956055,244.919144 
	C1046.132935,245.121460 1039.288940,244.775238 1032.476562,245.115570 
	C1028.886108,245.294952 1025.195312,246.051651 1021.816223,247.280243 
	C1016.503174,249.212021 1014.328369,253.771530 1014.201782,259.117828 
	C1014.073669,264.525177 1016.274719,269.070526 1021.530212,271.070892 
	C1024.700073,272.277405 1028.283081,272.900330 1031.684814,272.917145 
	C1060.165527,273.057953 1088.647095,273.000854 1117.128418,272.989166 
	C1118.958374,272.988403 1120.810303,273.028046 1122.614380,272.777496 
	C1129.600098,271.807373 1134.436035,266.827606 1134.852783,260.325989 
	C1135.289429,253.515625 1131.526001,248.137741 1124.602173,246.256348 
	C1121.747559,245.480682 1118.709351,245.141113 1115.742798,245.064011 
	C1108.918213,244.886642 1102.083862,244.871933 1095.258667,245.025040 
	C1090.811890,245.124802 1088.963135,243.297302 1088.974731,238.804855 
	C1089.056763,207.325775 1089.067505,175.846191 1088.962158,144.367233 
	C1088.946045,139.568771 1090.974731,137.860138 1095.586304,137.961151 
	C1103.410400,138.132538 1111.243286,138.088043 1119.069092,137.946030 
	C1128.431885,137.776123 1134.851196,132.066742 1134.893066,124.113335 
	C1134.934204,116.287025 1128.955322,110.744263 1119.745728,110.094910 
	C1118.584229,110.013008 1117.415283,110.010895 1116.249878,110.010696 
	C1088.101685,110.005844 1059.952393,109.893181 1031.806274,110.134193 
	C1027.825684,110.168282 1023.465942,111.197044 1019.981201,113.068123 
	C1015.007935,115.738419 1013.045227,122.324913 1014.514954,127.465195 
	C1016.210754,133.396286 1021.080444,137.369766 1028.362549,137.764053 
	C1036.169312,138.186737 1044.011963,137.947250 1051.838867,138.001740 
	C1059.566406,138.055527 1059.990479,138.447815 1059.994995,146.287399 
	C1060.012329,176.434311 1060.011963,206.581238 1059.978271,236.728104 
	C1059.975952,238.708176 1059.638184,240.687897 1059.004639,243.383301 
M1515.510010,548.000000 
	C1541.340210,547.999756 1567.170410,548.003723 1593.000610,547.991333 
	C1595.165039,547.990295 1597.355713,548.073730 1599.489624,547.786560 
	C1610.377075,546.321228 1615.642578,534.519653 1609.136963,526.021057 
	C1605.589111,521.386292 1600.265991,520.279541 1594.841675,520.100220 
	C1587.849731,519.868958 1580.845215,520.035400 1573.846313,519.992249 
	C1566.601196,519.947571 1566.085815,519.427612 1566.003418,512.388733 
	C1565.999512,512.055481 1566.000244,511.722137 1566.000244,511.388855 
	C1566.000244,481.392517 1565.990967,451.396210 1566.007080,421.399872 
	C1566.011475,413.365906 1566.376587,413.030884 1574.557617,413.003357 
	C1581.556763,412.979828 1588.558228,413.087433 1595.553833,412.926453 
	C1598.013428,412.869873 1600.570801,412.516785 1602.888184,411.726532 
	C1608.427002,409.837799 1612.075195,404.278778 1611.891479,398.615540 
	C1611.697021,392.621216 1607.646362,387.436188 1601.630493,386.024719 
	C1598.745361,385.347809 1595.707642,385.055054 1592.737793,385.047455 
	C1564.908081,384.976257 1537.077881,384.956696 1509.248413,385.068115 
	C1505.977051,385.081207 1502.508301,385.439209 1499.484619,386.576935 
	C1494.414185,388.484955 1491.634766,392.661621 1491.162231,398.079865 
	C1490.699585,403.387146 1492.975708,407.818207 1497.449829,410.278625 
	C1500.512817,411.963074 1504.380859,412.653229 1507.942993,412.860321 
	C1514.752930,413.256317 1521.601318,412.978638 1528.433838,413.002930 
	C1536.623779,413.032074 1536.991333,413.365479 1536.995850,421.390076 
	C1537.012817,451.386414 1537.003296,481.382751 1537.001709,511.379089 
	C1537.001709,512.378845 1536.936279,513.380554 1536.977905,514.378113 
	C1537.147949,518.448181 1535.084351,520.048584 1531.163818,520.000977 
	C1524.332642,519.917847 1517.496704,519.891479 1510.668091,520.056824 
	C1507.696167,520.128784 1504.659912,520.429688 1501.787354,521.157288 
	C1494.546631,522.991577 1490.637085,528.435364 1491.159912,535.433777 
	C1491.655273,542.065918 1496.838013,547.197876 1504.023560,547.833313 
	C1507.498779,548.140625 1511.016968,547.959839 1515.510010,548.000000 
z"/>
<path fill="#1E1E1E" opacity="1.000000" stroke="none" 
	d="
M613.632568,347.514343 
	C610.478516,365.494568 608.338562,383.244873 604.139465,400.493835 
	C597.168457,429.128998 585.157043,455.842255 569.704590,480.965698 
	C555.760498,503.636810 539.155823,524.193420 519.900635,542.536133 
	C483.930084,576.802185 442.008270,600.814575 394.361908,614.932068 
	C361.448334,624.684204 327.794159,628.459473 293.635284,626.850037 
	C255.517014,625.054138 218.971329,616.246277 184.024643,600.621277 
	C156.440811,588.288330 131.160339,572.417297 108.355438,552.729309 
	C82.574402,530.471985 61.150410,504.482635 44.065208,474.963470 
	C23.022552,438.606812 9.520430,399.726471 4.842797,357.896790 
	C-0.300031,311.907104 3.508905,266.784363 18.585527,222.882690 
	C29.872360,190.016510 45.975861,159.632645 67.490021,132.296539 
	C93.448120,99.313919 124.948021,72.812218 161.761108,52.549599 
	C198.773956,32.177036 238.304672,20.036228 280.291077,16.225994 
	C327.087860,11.979222 372.612823,17.857130 416.664581,34.637486 
	C452.235962,48.187462 484.119843,67.602570 512.559998,92.916695 
	C539.478577,116.876457 561.136658,144.811630 578.291870,176.440689 
	C595.392456,207.968994 606.466309,241.490799 611.638428,276.870819 
	C615.037476,300.121796 615.833008,323.579803 613.632568,347.514343 
M71.060585,400.899567 
	C77.715790,400.277313 82.831718,397.420654 86.966606,391.879700 
	C90.997932,386.477478 95.731255,381.487152 100.720245,376.933807 
	C112.663162,366.033844 126.627747,359.345337 142.694885,356.295685 
	C151.581161,354.608978 160.125153,350.851654 168.621826,347.514404 
	C171.913910,346.221375 175.210587,344.002380 177.529205,341.351562 
	C183.518250,334.504456 182.697327,326.406128 176.337051,318.766754 
	C164.577774,304.642548 163.959213,293.338287 174.416214,280.676453 
	C180.100433,273.793701 186.812195,268.454529 195.256592,265.881775 
	C204.148148,263.172791 213.260803,261.136841 222.352676,259.154541 
	C229.694458,257.553802 234.112350,253.394836 235.647980,246.063492 
	C237.128677,238.994400 233.198776,234.954681 227.974960,231.220200 
	C223.960114,228.350021 219.846268,225.251343 216.827835,221.424911 
	C208.612701,211.010681 210.559387,199.436356 213.483765,187.577499 
	C215.172592,180.729080 215.312668,173.477219 215.896759,166.386108 
	C216.238541,162.236710 213.703430,160.146835 209.789871,160.153107 
	C201.475922,160.166412 193.149139,160.207581 184.852036,160.672745 
	C174.660370,161.244125 164.470718,161.689880 154.677246,158.354248 
	C144.668106,154.945129 136.119781,149.664886 134.549332,137.885590 
	C133.092850,126.961166 133.801193,116.264351 138.926392,106.230209 
	C140.590500,102.972206 142.280960,99.714928 144.187347,96.596687 
	C146.474503,92.855606 144.595978,89.832870 141.988876,87.921257 
	C140.824295,87.067345 137.362244,88.082382 135.744354,89.307610 
	C120.338478,100.974457 105.976219,113.733269 93.065933,128.241943 
	C66.905212,157.641571 47.463295,190.872314 34.936131,228.074997 
	C23.256657,262.760223 16.912107,298.391693 20.115149,335.085571 
	C21.701691,353.260895 25.096819,371.276855 27.608500,389.373962 
	C28.297037,394.335022 30.875269,397.244598 35.932156,397.727692 
	C47.335682,398.817108 58.742207,399.875153 71.060585,400.899567 
M489.253418,286.112946 
	C492.383026,287.649719 495.669556,288.935883 498.609039,290.776337 
	C504.394531,294.398773 510.339844,296.579010 517.392517,296.095795 
	C528.517151,295.333618 537.233093,300.378937 543.120422,309.480560 
	C551.761047,322.838623 553.011353,337.469025 548.590088,352.608368 
	C545.796753,362.173462 542.459534,371.590607 539.975464,381.231079 
	C538.478455,387.040924 540.359436,389.001923 546.333984,389.826141 
	C547.485657,389.985016 548.667847,389.918762 549.821716,390.067017 
	C558.922791,391.236298 568.586182,390.205261 575.992554,397.624634 
	C578.760132,400.396973 582.232239,402.465942 585.383118,404.855652 
	C585.014404,404.739075 585.754944,403.277985 586.215576,401.733398 
	C593.485168,377.356598 597.272644,352.370026 597.885498,327.012909 
	C598.568726,298.744720 594.635498,270.974762 587.171997,243.655304 
	C574.910767,198.774734 552.697632,159.389481 521.481873,125.162735 
	C495.963593,97.183037 465.725708,75.332695 431.413666,59.197643 
	C426.043854,56.672520 424.862762,57.403385 422.978333,63.190838 
	C418.613647,76.595673 419.904297,89.719788 423.968140,102.921806 
	C426.436798,110.941452 429.859833,118.296997 437.057007,122.959381 
	C452.001892,132.640778 452.396576,156.869965 442.689911,167.870056 
	C436.204224,175.219986 429.872559,182.731491 423.889099,190.492279 
	C416.916718,199.535782 417.316315,201.827209 426.001007,208.702744 
	C431.640411,213.167343 435.389832,218.935318 433.675385,225.986237 
	C430.676788,238.318314 426.558502,250.461334 415.660706,258.462189 
	C408.916473,263.413666 404.465363,269.536591 402.549286,277.766693 
	C400.912048,284.799072 401.803986,288.758270 408.089172,291.829407 
	C417.188202,296.275513 426.819305,299.032135 437.041779,296.151154 
	C446.957520,293.356567 456.759613,290.161255 466.642639,287.247162 
	C473.807739,285.134460 480.973480,282.413055 489.253418,286.112946 
M380.867462,455.249207 
	C372.395874,461.132233 362.884003,463.157349 352.843781,461.883362 
	C342.505127,460.571472 332.091583,459.202637 322.022827,456.635040 
	C315.113312,454.873077 309.694946,455.840515 304.416077,460.183716 
	C300.821930,463.140839 297.276184,466.238647 293.343445,468.686554 
	C282.780945,475.261108 278.932983,485.633179 276.533356,496.972534 
	C275.750275,500.672943 277.622131,502.273773 280.909393,502.760529 
	C282.550354,503.003479 284.234436,502.937683 285.890503,503.098999 
	C296.527191,504.135284 305.306366,508.119080 309.283112,518.862854 
	C313.085052,529.134583 314.239716,539.841675 313.341766,550.736633 
	C311.721985,570.389771 313.804718,588.931274 327.563324,604.632202 
	C330.782715,608.306152 334.059357,609.260437 338.488220,608.759338 
	C368.289246,605.387756 397.254608,598.489014 424.436340,585.792114 
	C440.514008,578.282104 455.668701,568.794861 471.229980,560.181519 
	C474.084259,558.601685 474.150421,556.944458 472.798157,553.721985 
	C470.527313,548.310608 469.344666,542.398621 468.115051,536.609985 
	C467.325592,532.893555 467.328979,529.013977 466.874847,525.219727 
	C466.316193,520.552185 463.784851,518.132446 459.070526,516.797119 
	C454.053406,515.376099 449.369354,512.709412 444.628204,510.404755 
	C440.463287,508.380188 436.630615,505.420929 432.279572,504.083191 
	C423.508026,501.386353 418.010529,495.464661 413.443848,487.985870 
	C408.130127,479.283569 408.646362,469.777039 409.262512,460.320953 
	C409.503876,456.616608 408.248962,455.103729 405.151764,453.498871 
	C396.865082,449.204926 389.295563,452.321747 380.867462,455.249207 
z"/>
<path fill="#1E1E1E" opacity="1.000000" stroke="none" 
	d="
M1503.829834,272.994751 
	C1489.021729,272.981934 1474.686401,273.166656 1460.360107,272.886475 
	C1449.685669,272.677734 1443.122314,263.134521 1447.515625,253.906113 
	C1448.980957,250.828262 1452.510864,248.238144 1455.703369,246.626678 
	C1458.511597,245.209290 1462.156616,245.179504 1465.450439,245.064438 
	C1469.410034,244.926102 1470.682861,243.537521 1468.965942,239.815994 
	C1468.408936,238.608856 1467.858032,237.362686 1467.567505,236.074997 
	C1466.328003,230.580139 1462.965820,228.803879 1457.407471,228.898849 
	C1440.747681,229.183472 1424.079712,228.994034 1407.415039,229.000778 
	C1398.641846,229.004318 1398.622314,229.007019 1395.429810,237.011841 
	C1394.581787,239.137894 1393.894653,241.328125 1392.827393,244.358353 
	C1395.816162,244.634995 1398.184204,244.826202 1400.545776,245.078293 
	C1406.481323,245.711868 1412.260010,246.850464 1415.457153,252.674591 
	C1420.325195,261.543030 1414.602051,272.366577 1404.203003,272.722900 
	C1388.059082,273.276062 1371.879761,273.038849 1355.720703,272.793304 
	C1349.324463,272.696106 1344.984131,268.857391 1342.201782,262.079163 
	C1338.339722,271.882355 1330.893433,273.234314 1322.369141,273.065521 
	C1309.042480,272.801575 1295.701782,273.199493 1282.377319,272.880829 
	C1270.814331,272.604248 1264.543213,261.735474 1270.126587,252.142166 
	C1273.154175,246.939926 1278.433105,245.699615 1283.815186,245.158524 
	C1295.994385,243.934052 1296.004395,244.028732 1296.004639,231.738449 
	C1296.004883,213.240601 1296.004517,194.742767 1296.004150,176.244919 
	C1296.004150,174.296890 1296.004028,172.348862 1296.004028,170.400833 
	C1295.673950,170.318451 1295.343750,170.236069 1295.013672,170.153687 
	C1294.429443,171.020355 1293.701538,171.822906 1293.282227,172.763107 
	C1284.733643,191.925995 1276.187988,211.090408 1267.732300,230.294434 
	C1266.364502,233.400696 1264.391235,235.097931 1260.891602,234.979660 
	C1257.729370,234.872787 1254.496094,234.577393 1251.406250,235.069443 
	C1243.283691,236.362915 1239.564453,232.266327 1236.596924,225.254730 
	C1228.874390,207.008224 1220.500244,189.037460 1212.372559,170.962769 
	C1212.109375,170.377426 1211.698242,169.858627 1210.635986,168.152130 
	C1210.332520,170.537262 1210.026611,171.828506 1210.025024,173.120148 
	C1209.997070,194.784241 1209.978516,216.448441 1210.026611,238.112473 
	C1210.040039,244.214966 1210.800537,244.786331 1217.067139,245.024231 
	C1220.215698,245.143738 1223.397949,245.324280 1226.486084,245.900009 
	C1234.266479,247.350555 1238.304443,252.603867 1237.920776,260.380341 
	C1237.566895,267.554871 1232.678589,272.577332 1224.860962,272.826141 
	C1214.039307,273.170654 1203.200317,272.984253 1192.368774,272.993683 
	C1187.536743,272.997894 1182.688721,273.160767 1177.876343,272.833801 
	C1170.144775,272.308441 1165.423950,267.651611 1164.720337,260.348480 
	C1164.033691,253.220963 1167.488281,248.068802 1175.085083,246.109650 
	C1179.671021,244.926987 1181.168213,242.529388 1181.149658,237.972900 
	C1181.023560,206.977051 1181.022095,175.980164 1181.153198,144.984344 
	C1181.172119,140.504395 1179.672363,138.042618 1175.371948,136.402008 
	C1169.382568,134.117004 1166.723145,129.165176 1167.116821,122.945877 
	C1167.527588,116.452469 1170.410156,112.435158 1177.209595,111.011230 
	C1182.187500,109.968758 1187.447266,110.164162 1192.587280,110.033577 
	C1198.249634,109.889709 1203.935303,110.274406 1209.579346,109.924065 
	C1214.495117,109.618942 1217.140137,111.627602 1219.098267,116.034309 
	C1229.310425,139.015991 1239.744751,161.898849 1250.111938,184.811539 
	C1250.919434,186.596375 1251.804565,188.346085 1253.325073,191.508636 
	C1256.514648,184.565735 1259.230591,178.825974 1261.803101,173.022583 
	C1270.104004,154.295807 1278.469482,135.595932 1286.541382,116.770531 
	C1288.669189,111.807823 1291.562744,109.627090 1297.116699,109.892479 
	C1306.095825,110.321518 1315.116089,109.821037 1324.105957,110.113464 
	C1334.683838,110.457550 1339.759033,116.103859 1338.908569,125.881081 
	C1338.436401,131.309204 1335.498901,134.902786 1330.521606,136.618454 
	C1326.440308,138.025238 1324.917480,140.460526 1324.936035,144.791458 
	C1325.069824,175.953918 1325.056396,207.117371 1324.950684,238.280029 
	C1324.936768,242.393478 1326.146973,244.875061 1330.419800,245.746185 
	C1336.046875,246.893387 1340.031616,250.171600 1342.070190,256.386536 
	C1344.769043,247.826157 1351.477417,246.148849 1358.739136,244.652740 
	C1360.813110,244.225418 1362.983643,241.182999 1363.933716,238.858902 
	C1373.767456,214.803070 1383.352173,190.645508 1393.025024,166.523758 
	C1396.124634,158.794022 1399.221313,151.062134 1402.434937,143.379547 
	C1403.998779,139.640991 1402.805664,138.045822 1398.893311,138.027893 
	C1393.395142,138.002701 1387.868652,138.247635 1382.405151,137.780579 
	C1371.465942,136.845428 1365.487549,127.810753 1369.427612,118.557442 
	C1371.771973,113.051872 1376.328003,110.247925 1382.018311,110.186180 
	C1402.346069,109.965645 1422.677612,110.109673 1443.007446,110.053894 
	C1447.111816,110.042633 1448.210571,113.032135 1449.412354,115.996582 
	C1459.612305,141.159378 1469.783813,166.333740 1480.001221,191.489502 
	C1486.457520,207.385162 1493.084595,223.212601 1499.391846,239.166794 
	C1500.940674,243.084671 1503.148804,244.918564 1507.386230,245.300873 
	C1520.501465,246.484070 1522.948730,259.320953 1518.839722,266.076660 
	C1515.476685,271.606110 1510.317627,273.141052 1503.829834,272.994751 
M1411.716064,200.007141 
	C1412.141846,200.251572 1412.566040,200.706451 1412.993774,200.709793 
	C1424.975220,200.803909 1436.957275,200.932602 1448.938232,200.861694 
	C1452.757935,200.839096 1452.033936,198.416687 1451.036255,195.976395 
	C1445.116089,181.495911 1439.247559,166.994293 1433.326050,152.514343 
	C1432.943726,151.579239 1432.262939,150.766190 1431.328979,149.267380 
	C1430.205688,151.616135 1429.346313,153.207001 1428.665161,154.870819 
	C1424.377686,165.343536 1420.059570,175.804688 1415.903076,186.329544 
	C1414.209351,190.618423 1412.895020,195.057114 1411.716064,200.007141 
z"/>
<path fill="#1E1E1E" opacity="1.000000" stroke="none" 
	d="
M1324.000732,448.000000 
	C1324.000366,438.836212 1324.015747,430.172394 1323.994873,421.508636 
	C1323.975708,413.595062 1323.958496,413.595062 1316.070679,412.909058 
	C1305.564697,411.995300 1300.318604,405.697266 1301.976196,395.988434 
	C1303.015747,389.898926 1307.528442,385.531982 1314.602539,385.269043 
	C1326.081543,384.842285 1337.598877,384.833405 1349.070312,385.331604 
	C1351.398193,385.432709 1354.281738,388.117096 1355.744385,390.367523 
	C1369.447388,411.450989 1382.907837,432.692230 1396.415039,453.902740 
	C1403.750732,465.421875 1411.033081,476.974915 1418.365967,488.495819 
	C1418.973633,489.450775 1419.784180,490.276581 1421.337280,492.197144 
	C1421.640625,489.657593 1421.968262,488.182800 1421.970337,486.707581 
	C1422.002686,464.548309 1422.015991,442.388977 1421.976807,420.229736 
	C1421.965332,413.710510 1421.279419,413.312897 1414.777832,412.937805 
	C1410.347778,412.682190 1405.753296,412.394714 1401.593872,411.024384 
	C1395.828125,409.124908 1393.733765,404.695923 1394.064575,397.852905 
	C1394.343140,392.092590 1397.316406,387.922699 1402.649780,386.230011 
	C1404.688843,385.582825 1406.882446,385.116425 1409.009399,385.101318 
	C1423.170410,385.000854 1437.332764,384.997498 1451.493774,385.093140 
	C1453.618286,385.107483 1455.814209,385.571106 1457.846313,386.230316 
	C1464.219116,388.297729 1466.933350,392.208618 1466.953735,398.925690 
	C1466.974609,405.833893 1464.167114,410.519653 1457.693481,411.975647 
	C1452.080688,413.238068 1450.796509,416.160400 1450.819214,421.423676 
	C1450.985107,459.910156 1450.908569,498.397736 1450.905762,536.884949 
	C1450.905029,547.997437 1450.900879,547.998596 1439.554199,547.999329 
	C1435.722168,547.999573 1431.879883,547.815430 1428.060913,548.036011 
	C1423.926025,548.274780 1421.275879,546.607056 1419.067261,543.118347 
	C1402.854858,517.509644 1386.515259,491.981384 1370.185181,466.447296 
	C1364.945190,458.253998 1359.612915,450.119629 1353.294067,442.309906 
	C1353.195190,443.901733 1353.011597,445.493500 1353.010254,447.085388 
	C1352.991821,468.744873 1352.981812,490.404388 1353.008179,512.063843 
	C1353.017334,519.487183 1353.469971,519.774780 1361.013062,520.053406 
	C1364.314087,520.175415 1367.695923,520.473267 1370.864136,521.338623 
	C1377.497559,523.150452 1381.232788,528.589600 1380.843506,535.114258 
	C1380.461182,541.522766 1375.444702,547.495544 1368.721680,547.666748 
	C1352.242676,548.086304 1335.737183,548.098206 1319.259644,547.645020 
	C1312.481445,547.458557 1307.763184,541.965698 1307.178955,535.665039 
	C1306.559814,528.990051 1310.164917,522.987915 1316.986206,521.343140 
	C1322.722656,519.959900 1324.182251,517.013062 1324.110107,511.477325 
	C1323.836426,490.487976 1324.000366,469.492920 1324.000732,448.000000 
z"/>
<path fill="#1E1E1E" opacity="1.000000" stroke="none" 
	d="
M1711.157959,256.517273 
	C1713.055420,248.253235 1719.001709,245.885880 1726.062134,245.103867 
	C1732.656006,244.373550 1732.978638,244.145660 1732.984375,237.510437 
	C1733.010864,206.855850 1733.011108,176.201187 1732.984863,145.546600 
	C1732.979004,138.736664 1732.666870,138.483978 1725.608765,137.938797 
	C1715.894287,137.188461 1710.937378,132.338409 1711.045776,123.689957 
	C1711.138672,116.277802 1715.226562,111.454475 1722.576538,110.293999 
	C1724.536743,109.984482 1726.562500,110.015137 1728.558105,110.014381 
	C1767.209595,109.999863 1805.860962,109.996277 1844.512451,110.010323 
	C1852.616943,110.013268 1852.981567,110.381485 1852.988403,118.475594 
	C1852.999268,131.303680 1853.206787,144.138214 1852.871460,156.957993 
	C1852.573730,168.335999 1841.342041,174.459793 1831.856689,168.741959 
	C1826.649780,165.603180 1825.674683,160.287094 1825.160034,154.929443 
	C1824.794800,151.128891 1824.957275,147.272903 1824.972290,143.442001 
	C1824.985596,140.040070 1823.613525,138.051041 1819.983398,138.052673 
	C1802.324219,138.060669 1784.664917,138.056793 1767.005737,138.056335 
	C1763.740845,138.056244 1762.059570,139.661026 1762.057739,142.950684 
	C1762.052490,152.613037 1762.062744,162.275391 1762.046875,171.937714 
	C1762.041016,175.545486 1763.968262,176.998108 1767.395264,176.965927 
	C1771.226440,176.929947 1775.062622,176.860092 1778.888916,177.007141 
	C1783.030640,177.166306 1784.750854,175.428299 1785.162476,171.202362 
	C1786.056519,162.021362 1791.089966,157.119232 1798.922485,157.048767 
	C1806.937622,156.976654 1812.530884,161.561676 1812.755737,169.662628 
	C1813.157715,184.144165 1813.100708,198.649277 1812.793091,213.135132 
	C1812.640747,220.311813 1807.328857,225.259064 1800.394409,225.860229 
	C1793.584473,226.450592 1787.707153,222.239746 1785.932983,215.448608 
	C1785.555298,214.003036 1785.163086,212.523880 1785.087402,211.044312 
	C1784.908813,207.556213 1783.178711,205.896851 1779.710327,205.920563 
	C1775.546021,205.949020 1771.381348,205.923035 1767.216919,205.934402 
	C1764.063354,205.943024 1762.093628,207.309494 1762.083374,210.675385 
	C1762.053345,220.503967 1762.056763,230.332687 1762.066650,240.161331 
	C1762.069946,243.500381 1763.903442,244.950806 1767.117798,244.950516 
	C1786.609741,244.948837 1806.101807,244.935928 1825.593750,244.975845 
	C1829.395386,244.983658 1830.919189,243.157822 1831.007446,239.450867 
	C1831.134033,234.139587 1831.129395,228.768906 1831.947021,223.543488 
	C1833.194702,215.570084 1838.469238,211.642502 1846.266968,212.068054 
	C1853.556152,212.465866 1858.395264,217.210373 1858.831543,225.030655 
	C1859.183594,231.343185 1858.983032,237.687500 1858.995361,244.017776 
	C1859.009888,251.514771 1858.848999,259.015350 1859.036255,266.507599 
	C1859.153687,271.205750 1857.252808,273.073425 1852.535400,273.039368 
	C1834.543457,272.909576 1816.550049,273.000244 1798.557129,272.999603 
	C1774.566528,272.998749 1750.575806,273.056061 1726.585571,272.954315 
	C1715.479248,272.907196 1710.936035,268.048096 1711.157959,256.517273 
z"/>
<path fill="#1E1E1E" opacity="1.000000" stroke="none" 
	d="
M2042.132812,486.744751 
	C2042.057129,482.637421 2040.233154,480.844727 2036.501831,480.903870 
	C2032.338379,480.969879 2028.172974,480.917511 2024.008667,480.947205 
	C2020.763428,480.970367 2019.066284,482.609039 2019.062012,485.883270 
	C2019.049438,495.545685 2019.056763,505.208069 2019.046753,514.870483 
	C2019.043457,518.079224 2020.482422,519.929077 2023.827148,519.930115 
	C2043.651978,519.936401 2063.476807,519.936646 2083.301514,519.916016 
	C2086.707764,519.912415 2087.858887,517.881226 2087.980713,514.741272 
	C2088.193115,509.264709 2088.150879,503.729126 2088.985596,498.337524 
	C2090.177979,490.637268 2095.396729,486.749695 2102.976318,487.060577 
	C2110.342285,487.362701 2115.368164,491.993683 2115.787842,499.742004 
	C2116.210938,507.550751 2115.972412,515.396057 2115.995117,523.225464 
	C2116.013184,529.389648 2115.865234,535.557068 2116.022949,541.717163 
	C2116.136230,546.146851 2114.342529,548.139526 2109.824951,548.021484 
	C2103.664795,547.860596 2097.497559,547.998840 2091.333252,547.999084 
	C2056.346924,548.000488 2021.360474,548.009338 1986.374023,547.977661 
	C1983.719482,547.975220 1980.997681,547.997742 1978.423706,547.455261 
	C1971.671997,546.032288 1968.222046,541.615356 1968.051758,534.716248 
	C1967.883057,527.885010 1971.192017,523.123779 1977.568848,521.210144 
	C1979.313354,520.686646 1981.132446,520.329407 1982.943115,520.123596 
	C1989.745483,519.350281 1989.984253,519.178345 1989.989014,512.131165 
	C1990.009521,481.643005 1990.011353,451.154846 1989.986694,420.666687 
	C1989.981079,413.722198 1989.677490,413.464447 1982.728638,412.945740 
	C1972.968262,412.217102 1967.979126,407.413879 1968.045776,398.809967 
	C1968.104736,391.190338 1972.364990,386.260590 1979.951660,385.239655 
	C1982.085815,384.952454 1984.274170,385.010925 1986.437744,385.010284 
	C2024.589600,384.998779 2062.741455,384.997375 2100.893311,385.007050 
	C2109.777100,385.009308 2109.986084,385.210449 2109.991211,393.855927 
	C2109.998291,406.517517 2110.194824,419.184784 2109.880615,431.838989 
	C2109.597900,443.252319 2098.508789,449.426514 2088.958984,443.802368 
	C2083.707275,440.709442 2082.701172,435.403473 2082.168213,430.047913 
	C2081.790283,426.249695 2081.939209,422.391205 2081.982910,418.561096 
	C2082.024902,414.854034 2080.411865,413.016541 2076.603027,413.024384 
	C2059.276611,413.060059 2041.950317,413.057739 2024.624023,413.014343 
	C2020.959961,413.005157 2019.005615,414.483948 2019.025635,418.331573 
	C2019.074951,427.827240 2019.060547,437.323364 2019.039307,446.819214 
	C2019.031372,450.364227 2020.783691,451.989227 2024.276733,451.960815 
	C2027.941406,451.930969 2031.614624,451.829865 2035.269897,452.024902 
	C2039.773438,452.265320 2041.800293,450.609100 2042.217773,445.823456 
	C2042.981689,437.070770 2048.195801,432.157349 2055.803955,432.049072 
	C2063.845215,431.934631 2069.509521,436.473175 2069.738770,444.544952 
	C2070.154541,459.191650 2070.110840,473.865143 2069.742676,488.514465 
	C2069.564453,495.601593 2063.977051,500.458191 2057.013428,500.881866 
	C2050.391602,501.284698 2044.746094,497.152618 2042.953735,490.565002 
	C2042.648315,489.442047 2042.436523,488.293579 2042.132812,486.744751 
z"/>
<path fill="#1E1E1E" opacity="1.000000" stroke="none" 
	d="
M835.002197,458.000000 
	C834.999390,445.000916 834.888550,432.500427 835.053955,420.003571 
	C835.109680,415.790405 833.904297,413.274811 829.579346,411.848755 
	C823.259766,409.764984 819.691650,403.954010 820.239441,398.037262 
	C820.854980,391.387543 825.431396,385.770233 832.389465,385.473236 
	C845.854858,384.898407 859.387268,384.800598 872.842590,385.480621 
	C881.333252,385.909729 886.252319,392.170563 885.888000,399.671509 
	C885.527405,407.095642 879.935120,412.269592 871.567078,412.921082 
	C863.023315,413.586182 863.013977,413.586243 863.004211,422.381256 
	C862.995300,430.380646 863.138733,438.382843 862.964050,446.378326 
	C862.863831,450.965485 864.509827,453.085388 869.341431,453.036743 
	C884.505371,452.884003 899.672424,452.904053 914.836914,453.023590 
	C919.362854,453.059235 921.100464,451.121185 921.026794,446.701660 
	C920.882446,438.038177 921.023315,429.370300 920.987854,420.704468 
	C920.959351,413.732147 920.687134,413.481140 913.762390,412.943878 
	C904.135864,412.196930 899.241211,407.672058 899.037537,399.331482 
	C898.839050,391.203369 903.112366,385.634705 911.293152,385.317993 
	C924.434937,384.809174 937.624573,384.839142 950.767944,385.333557 
	C958.297363,385.616791 962.954346,390.193146 963.821899,396.241547 
	C964.913879,403.855530 962.158630,408.818146 954.608704,411.873352 
	C951.325623,413.201874 949.980896,415.179596 949.986755,418.641479 
	C950.040710,450.472260 950.056091,482.303253 949.973328,514.133911 
	C949.962097,518.468140 952.080261,519.700012 956.007324,520.287781 
	C965.985291,521.781372 971.300476,528.527527 969.660889,536.951904 
	C968.455200,543.146606 963.446716,547.707214 956.480286,547.829285 
	C941.653809,548.089172 926.815002,548.115723 911.990234,547.807373 
	C904.478455,547.651184 899.523010,542.813354 899.074280,536.412231 
	C898.457642,527.614136 901.618408,523.020447 909.755493,520.909668 
	C910.722290,520.658813 911.695923,520.412048 912.681152,520.257690 
	C920.983398,518.956970 920.992554,518.963562 920.999023,510.397064 
	C921.004822,502.730988 920.883423,495.062927 921.026245,487.399597 
	C921.107056,483.064728 919.548035,480.939453 914.939514,480.975769 
	C899.608398,481.096588 884.275330,481.078156 868.943726,480.987457 
	C864.682373,480.962250 862.934998,482.809875 862.989197,487.017273 
	C863.105164,496.015015 863.111389,505.016479 862.986755,514.013977 
	C862.928101,518.245483 864.737671,520.061096 868.950989,520.094849 
	C871.247070,520.113220 873.585999,520.643616 875.821594,521.251648 
	C882.415100,523.044861 886.226501,528.324951 885.885925,534.929993 
	C885.530640,541.818237 881.082520,547.436035 874.161865,547.634705 
	C858.348572,548.088562 842.502869,548.101135 826.691345,547.612122 
	C819.599365,547.392761 815.471985,542.272461 815.076843,535.513794 
	C814.637756,528.006042 818.070679,523.038574 825.180237,520.893677 
	C835.000610,517.931030 835.001404,517.931030 835.001892,507.495880 
	C835.002625,491.163910 835.002136,474.831970 835.002197,458.000000 
z"/>
<path fill="#1E1E1E" opacity="1.000000" stroke="none" 
	d="
M1054.362671,542.245117 
	C1050.203735,544.358826 1046.302979,547.575073 1042.293945,547.716125 
	C1025.655884,548.301636 1008.982117,548.157837 992.327637,547.890991 
	C980.034851,547.694031 973.838196,536.940796 979.754639,526.700378 
	C982.732849,521.545776 987.954834,520.810181 993.086121,520.136230 
	C999.662170,519.272522 999.978943,519.130493 999.984619,512.491577 
	C1000.011047,481.839264 1000.011597,451.186951 999.984802,420.534637 
	C999.978882,413.736603 999.665588,413.485138 992.597473,412.938019 
	C984.218445,412.289429 979.166931,408.644897 978.047363,402.440399 
	C976.258240,392.525360 981.475464,385.605103 991.590637,385.149353 
	C999.737732,384.782257 1007.912415,385.008972 1016.074829,385.003967 
	C1031.900757,384.994293 1047.734985,384.686859 1063.550415,385.095398 
	C1081.323975,385.554474 1097.012329,390.986481 1109.402344,404.779175 
	C1125.020996,422.165741 1123.267212,451.875275 1105.120483,466.590637 
	C1101.506714,469.520996 1097.755005,472.292786 1093.948242,474.968964 
	C1091.774414,476.497192 1091.466309,478.010742 1093.380737,479.804077 
	C1105.132568,490.811707 1114.525269,503.702118 1123.575806,516.921082 
	C1124.792114,518.697754 1127.968140,519.630066 1130.382812,520.001099 
	C1139.856689,521.456421 1144.318970,525.258240 1144.894653,533.000183 
	C1145.500610,541.149231 1140.881226,547.103027 1132.737305,547.739990 
	C1126.445190,548.232056 1120.065186,548.199341 1113.772339,547.739990 
	C1111.687256,547.587708 1109.207397,545.805359 1107.835693,544.045288 
	C1097.714600,531.058594 1088.287598,517.501160 1077.678711,504.936890 
	C1072.191772,498.438568 1064.850342,493.459473 1058.095825,488.110992 
	C1056.424805,486.787842 1053.798096,486.241150 1051.572144,486.133392 
	C1045.921509,485.859711 1040.248413,486.084290 1034.585449,486.016998 
	C1030.899902,485.973236 1028.989258,487.539703 1029.015137,491.364380 
	C1029.068237,499.193329 1029.050415,507.022858 1029.032349,514.852112 
	C1029.024048,518.409180 1030.827637,519.898132 1034.298950,519.993408 
	C1037.779297,520.088989 1041.337891,520.086914 1044.711060,520.821716 
	C1055.893799,523.257629 1059.673218,531.567383 1054.362671,542.245117 
M1028.984985,448.418457 
	C1029.043335,457.978302 1029.045898,458.120758 1038.368286,457.955658 
	C1045.680054,457.826172 1053.053833,457.793091 1060.275391,456.806091 
	C1069.799561,455.504456 1078.755615,452.119843 1085.934692,445.442139 
	C1093.825684,438.102203 1093.587280,429.434357 1085.826294,421.964203 
	C1080.939209,417.260254 1075.088379,414.485413 1068.427368,414.103699 
	C1057.468262,413.475647 1046.477417,413.421448 1035.505737,412.979980 
	C1030.824341,412.791626 1028.859985,414.711914 1028.948364,419.448090 
	C1029.122314,428.776764 1028.990112,438.111115 1028.984985,448.418457 
z"/>
<path fill="#1E1E1E" opacity="1.000000" stroke="none" 
	d="
M2256.258301,464.679688 
	C2277.031250,477.712128 2284.343262,503.801331 2272.772217,524.850403 
	C2266.867188,535.592163 2257.158691,542.609985 2245.756592,546.785583 
	C2223.351318,554.990417 2201.021973,554.169495 2179.024902,545.004639 
	C2174.912842,543.291382 2171.651611,542.183350 2167.172607,545.486450 
	C2158.620117,551.793762 2147.214111,546.524231 2146.386963,535.894653 
	C2145.588135,525.629578 2145.843994,515.237122 2146.328857,504.933258 
	C2146.657227,497.962830 2151.618652,493.147827 2157.784668,492.260834 
	C2163.799805,491.395538 2170.897217,494.530548 2172.319580,500.417633 
	C2175.648926,514.197205 2186.152344,518.909302 2197.884766,521.989807 
	C2213.544434,526.101440 2228.750488,524.786743 2242.296387,515.153748 
	C2252.436768,507.942657 2252.116699,495.804932 2241.063232,490.059845 
	C2233.540283,486.149933 2224.903076,484.116669 2216.553955,482.124298 
	C2202.806152,478.843597 2188.695312,477.070984 2175.872314,470.464508 
	C2148.529541,456.377289 2142.897949,421.015472 2164.355957,399.050903 
	C2176.386963,386.735901 2191.010742,381.481750 2207.859131,380.957825 
	C2220.581543,380.562134 2232.712891,382.397156 2244.154297,388.333923 
	C2245.615234,389.091949 2248.365479,388.507965 2249.998535,387.605347 
	C2259.995605,382.079559 2270.224609,386.080872 2271.266357,397.352905 
	C2272.330811,408.868408 2271.841553,420.629272 2270.896729,432.189972 
	C2270.345215,438.942200 2264.718018,442.751678 2258.396973,442.907837 
	C2251.807129,443.070618 2247.236084,439.772614 2244.958252,433.211853 
	C2238.318848,414.086823 2223.708252,405.827301 2203.373779,409.670502 
	C2195.105225,411.233215 2187.714355,414.349091 2182.719971,421.527008 
	C2178.173340,428.061523 2178.389648,435.135742 2184.275146,440.484039 
	C2187.833740,443.717743 2192.401855,446.550323 2196.996094,447.801422 
	C2210.963379,451.604858 2225.228760,454.303406 2239.242432,457.952698 
	C2244.986084,459.448425 2250.382568,462.276947 2256.258301,464.679688 
z"/>
<path fill="#1E1E1E" opacity="1.000000" stroke="none" 
	d="
M1297.075684,445.998413 
	C1301.869019,473.815277 1298.811768,499.649872 1280.851685,522.038391 
	C1258.494019,549.908630 1227.997803,559.240112 1196.740234,547.729004 
	C1172.855225,538.932922 1156.607788,521.157043 1148.871216,496.698456 
	C1139.730469,467.801697 1142.215698,439.828430 1159.807251,414.630127 
	C1180.665771,384.752441 1212.518188,374.046600 1243.250122,384.288666 
	C1272.446777,394.019073 1290.025757,415.548798 1297.075684,445.998413 
M1189.914307,423.410706 
	C1188.010498,425.505646 1186.038818,427.543335 1184.213379,429.704559 
	C1169.006714,447.710052 1168.720703,485.743927 1185.982544,506.117950 
	C1204.148926,527.559692 1233.252930,530.014160 1253.217407,510.284515 
	C1272.616333,491.113556 1276.963257,457.798889 1262.588501,434.558075 
	C1245.157471,406.375977 1212.733154,400.177277 1189.914307,423.410706 
z"/>
<path fill="#1E1E1E" opacity="1.000000" stroke="none" 
	d="
M1581.066895,245.002579 
	C1584.386230,244.993820 1587.222778,244.886261 1590.050293,245.000015 
	C1594.306885,245.171249 1596.051270,243.202911 1596.013916,238.991638 
	C1595.914795,227.829025 1595.998291,216.664825 1595.999634,205.501266 
	C1596.001953,185.506744 1596.019409,165.512161 1595.984253,145.517700 
	C1595.972168,138.663971 1595.348877,138.072845 1588.561768,138.012665 
	C1583.730225,137.969818 1578.897461,137.961685 1574.066040,138.018112 
	C1567.816162,138.091080 1567.093994,138.781021 1567.024048,144.891769 
	C1566.942017,152.055527 1567.242676,159.236237 1566.845215,166.379990 
	C1566.506470,172.467407 1565.225098,178.520477 1558.752686,181.335175 
	C1548.892212,185.623230 1539.364014,179.281876 1539.120239,167.995667 
	C1538.818237,154.005814 1539.012939,140.005112 1539.004150,126.009109 
	C1539.001831,122.343719 1539.048340,118.678329 1539.058472,115.012894 
	C1539.067627,111.747948 1540.664917,110.076645 1543.955444,110.060783 
	C1545.121582,110.055161 1546.287598,110.006798 1547.453735,110.006706 
	C1589.442261,110.003220 1631.430664,109.995987 1673.419189,110.008751 
	C1681.620361,110.011238 1681.976685,110.366051 1681.989014,118.382919 
	C1682.011597,133.212158 1682.039062,148.041718 1681.954346,162.870499 
	C1681.938354,165.677292 1681.695679,168.546509 1681.067505,171.274033 
	C1679.264771,179.101395 1673.891968,183.289337 1666.951050,182.600037 
	C1659.562012,181.866241 1654.596680,176.832733 1654.166748,168.995163 
	C1653.820435,162.681274 1654.013916,156.336655 1654.004395,150.005630 
	C1653.986206,138.000107 1653.997070,137.999741 1642.050903,137.998215 
	C1638.718506,137.997787 1635.385986,137.982635 1632.053711,138.004883 
	C1624.527100,138.055115 1624.020386,138.508331 1624.013916,145.903259 
	C1623.989014,173.895569 1624.001099,201.887909 1624.000610,229.880249 
	C1624.000610,232.712784 1623.962524,235.546341 1624.023682,238.377655 
	C1624.148438,244.165924 1624.885498,244.784576 1630.834839,245.010483 
	C1637.139771,245.249863 1643.540649,245.050430 1649.715454,246.112915 
	C1657.881958,247.518143 1661.665527,253.246841 1660.876099,261.201355 
	C1660.181885,268.196350 1655.101440,272.831696 1647.049927,272.886871 
	C1622.557983,273.054779 1598.063843,273.048218 1573.571655,272.905823 
	C1565.388062,272.858246 1559.746338,267.702759 1559.164551,260.513702 
	C1558.572021,253.192078 1562.708252,247.749664 1570.682129,245.959854 
	C1573.891357,245.239487 1577.275391,245.298523 1581.066895,245.002579 
z"/>
<path fill="#1E1E1E" opacity="1.000000" stroke="none" 
	d="
M709.817139,276.250061 
	C693.199585,273.898315 678.167969,268.591064 666.168579,257.221924 
	C654.326355,246.001648 645.905334,232.426270 643.414978,215.983658 
	C641.008301,200.093872 641.034058,184.087463 643.940979,168.258759 
	C650.051270,134.987122 674.559143,111.051567 708.054260,106.470146 
	C724.466858,104.225250 740.677856,106.280403 755.538208,114.502472 
	C758.068237,115.902298 759.696350,115.981209 762.115112,113.998650 
	C771.724121,106.122475 783.488525,109.822853 784.894104,122.053185 
	C786.286865,134.172241 785.840210,146.622055 784.968384,158.838898 
	C784.411926,166.637222 779.250061,170.399963 772.391724,170.666794 
	C765.468140,170.936172 759.919983,167.231552 758.566223,159.490768 
	C756.229248,146.127777 747.268555,140.271759 735.581055,136.732986 
	C705.229126,127.542931 676.656250,144.100143 671.855164,174.879517 
	C670.005249,186.739792 670.204895,199.262024 671.658325,211.216690 
	C673.953308,230.093185 689.005310,243.548706 709.787354,247.658981 
	C720.384399,249.754883 730.972107,249.472580 741.530334,247.317551 
	C749.553650,245.679916 756.487610,242.215454 762.406311,236.324829 
	C765.369629,233.375534 769.168579,230.610641 773.090759,229.436615 
	C778.711243,227.754242 784.041199,229.705750 787.456787,234.920853 
	C790.885010,240.155182 791.027649,245.747360 787.555115,250.905746 
	C782.241699,258.798767 775.015381,264.652802 766.430176,268.737091 
	C748.526855,277.254272 729.584839,278.265869 709.817139,276.250061 
z"/>
<path fill="#1E1E1E" opacity="1.000000" stroke="none" 
	d="
M1671.237061,485.414490 
	C1675.062988,508.801300 1695.345459,522.773132 1719.280151,523.853271 
	C1725.885986,524.151367 1732.605835,523.623291 1739.170532,522.723450 
	C1748.091553,521.500732 1755.958618,517.908813 1762.481201,511.261200 
	C1765.397217,508.289246 1769.259277,505.579712 1773.184814,504.422699 
	C1778.821533,502.761200 1784.132324,504.766693 1787.510132,510.000427 
	C1790.901123,515.254395 1791.001709,520.841553 1787.505615,525.987793 
	C1782.159912,533.856873 1775.093018,540.098450 1766.316895,543.711426 
	C1735.244751,556.503540 1704.378540,556.296570 1675.183228,538.885193 
	C1657.338257,528.242798 1646.943115,511.258575 1643.442261,490.768158 
	C1640.737427,474.938354 1641.055054,458.882111 1643.971680,443.054535 
	C1650.077148,409.922882 1674.965088,385.770477 1708.256470,381.432617 
	C1724.683472,379.292206 1740.890869,381.305939 1755.712158,389.613739 
	C1758.363037,391.099579 1759.962280,390.735260 1762.266968,388.858490 
	C1771.615967,381.244598 1783.481323,384.917664 1784.825806,396.767059 
	C1786.219727,409.051422 1785.789551,421.660400 1784.920776,434.040619 
	C1784.380859,441.734436 1779.015503,445.541443 1772.185303,445.666687 
	C1765.350952,445.791962 1759.941895,442.261597 1758.659912,434.770233 
	C1756.250977,420.694366 1746.654663,414.815552 1734.428345,411.380737 
	C1700.632324,401.886261 1671.090698,424.300049 1670.998657,459.494171 
	C1670.976440,467.987213 1671.113647,476.480682 1671.237061,485.414490 
z"/>
<path fill="#1E1E1E" opacity="1.000000" stroke="none" 
	d="
M719.692749,551.421753 
	C703.669800,549.062805 689.081970,544.345398 677.017273,533.712402 
	C663.989563,522.230713 655.170105,508.122375 652.425171,490.869873 
	C649.900696,475.003174 650.043152,458.978455 652.956970,443.150238 
	C659.068787,409.949341 683.775269,385.899536 717.160461,381.449768 
	C733.580566,379.261200 749.789612,381.293610 764.629211,389.560669 
	C767.222046,391.005157 768.838745,390.850769 771.194275,388.925140 
	C780.601257,381.234924 792.495972,384.818085 793.791504,396.670685 
	C795.169922,409.281677 794.617249,422.212006 793.725281,434.919922 
	C793.235291,441.900238 787.814880,445.480713 781.284851,445.666870 
	C774.824646,445.851044 769.693359,442.484680 767.947266,435.812469 
	C765.868103,427.867767 763.429871,420.498779 755.504089,416.339355 
	C745.227478,410.946167 734.361633,407.801392 722.803040,409.438477 
	C696.701233,413.135376 680.101257,432.579529 679.992859,458.893188 
	C679.966064,465.389313 679.974060,471.885681 679.995972,478.381866 
	C680.062439,498.096069 691.372559,514.110901 710.203064,520.384705 
	C724.794800,525.246277 739.797485,525.737854 754.433594,521.095459 
	C760.378357,519.209900 765.551208,514.832947 771.004089,511.473999 
	C774.774658,509.151367 778.130676,505.671692 782.197266,504.431091 
	C787.810120,502.718750 793.139160,504.771606 796.514221,510.006409 
	C799.902588,515.261902 800.021179,520.865295 796.499084,525.991577 
	C790.611694,534.560547 782.591797,540.626892 773.065979,544.820312 
	C756.064819,552.304626 738.236633,552.932556 719.692749,551.421753 
z"/>
<path fill="#1E1E1E" opacity="1.000000" stroke="none" 
	d="
M949.913696,202.646027 
	C962.078430,198.059326 970.797302,203.758514 970.932495,216.287323 
	C971.112366,232.949921 971.022583,249.615936 970.968506,266.280243 
	C970.949341,272.168396 970.164490,272.965332 964.261658,272.969879 
	C921.933777,273.002472 879.605896,272.995422 837.278015,272.962128 
	C831.279114,272.957397 825.872986,271.416962 823.310486,265.310089 
	C821.122375,260.095398 820.685059,254.293396 825.219482,250.482498 
	C828.532898,247.697723 833.304321,246.201126 837.669983,245.246521 
	C841.652161,244.375763 845.964294,244.920837 850.127991,245.000443 
	C854.023926,245.074890 855.999573,243.509201 855.993591,239.414322 
	C855.946777,207.418732 855.952209,175.423050 855.979187,143.427429 
	C855.982361,139.637497 854.195435,137.982376 850.469666,138.016068 
	C845.804871,138.058258 841.127075,138.151245 836.475830,137.872101 
	C827.491821,137.332932 822.397278,132.669830 822.062500,125.027107 
	C821.665771,115.968964 826.636902,110.610695 836.347046,110.135475 
	C842.665344,109.826256 849.008667,110.008278 855.340759,110.003929 
	C870.172180,109.993752 885.004028,109.951126 899.834778,110.050194 
	C902.804688,110.070030 905.843750,110.357803 908.723633,111.050903 
	C914.915771,112.541168 918.792053,117.549217 918.903625,123.641052 
	C919.017578,129.861923 915.593567,135.477646 909.439697,136.743912 
	C903.650879,137.935089 897.561035,137.771637 891.595825,137.969131 
	C884.677856,138.198151 884.027527,138.637558 884.020996,145.362259 
	C883.990845,176.191605 883.989563,207.021027 884.024597,237.850372 
	C884.031921,244.299240 884.729858,244.961533 891.309875,244.980988 
	C906.141174,245.024826 920.972778,245.026825 935.804016,244.978912 
	C942.295776,244.957947 942.925537,244.284668 942.984436,237.738068 
	C943.045959,230.906128 942.827881,224.065277 943.107788,217.243729 
	C943.335815,211.685379 944.301331,206.232788 949.913696,202.646027 
z"/>
<path fill="#1E1E1E" opacity="1.000000" stroke="none" 
	d="
M1870.000000,458.000000 
	C1870.001953,476.492523 1869.980347,494.485138 1870.018188,512.477600 
	C1870.032593,519.336792 1870.652466,519.963562 1877.433105,519.982910 
	C1892.093628,520.024719 1906.754395,520.023254 1921.414917,519.985168 
	C1928.429565,519.966980 1928.943237,519.391724 1928.994141,512.131348 
	C1929.043091,505.134827 1928.802490,498.125061 1929.154907,491.144653 
	C1929.649902,481.337921 1934.292480,476.269104 1942.341309,476.052094 
	C1951.100952,475.815948 1956.667358,480.592285 1956.829102,489.603180 
	C1957.145874,507.256531 1956.903564,524.919373 1956.984619,542.577820 
	C1957.007935,547.643982 1953.803467,548.016418 1949.966431,548.010376 
	C1927.142578,547.974731 1904.318604,548.001526 1881.494751,547.998718 
	C1862.002930,547.996338 1842.510254,548.078430 1823.019409,547.933777 
	C1812.986328,547.859253 1807.759766,542.533875 1808.055054,533.264954 
	C1808.242798,527.370789 1811.516724,522.534546 1817.531860,521.351562 
	C1823.182007,520.240295 1829.076172,520.269470 1834.872559,520.027466 
	C1841.173706,519.764221 1841.966675,519.234131 1841.974609,513.175720 
	C1842.015381,482.022003 1842.016113,450.868225 1841.972900,419.714539 
	C1841.964722,413.835083 1841.161865,413.143250 1835.261108,413.013397 
	C1830.433838,412.907135 1825.555420,413.243805 1820.788696,412.659088 
	C1812.003174,411.581390 1807.828857,406.598785 1808.052979,398.328827 
	C1808.261475,390.633728 1812.989746,386.004395 1821.539795,385.143158 
	C1822.367188,385.059784 1823.203125,385.029877 1824.035156,385.029663 
	C1845.359619,385.024139 1866.684082,385.000641 1888.008301,385.065063 
	C1890.145996,385.071503 1892.328003,385.433533 1894.410400,385.949341 
	C1900.878906,387.551392 1904.855835,392.519745 1904.903076,398.807800 
	C1904.951050,405.191559 1901.288696,410.708771 1894.810669,411.946045 
	C1889.159302,413.025513 1883.243774,412.804291 1877.439575,412.978516 
	C1870.655762,413.182190 1870.041870,413.661499 1870.017700,420.515106 
	C1869.974365,432.843292 1870.002075,445.171692 1870.000000,458.000000 
z"/>
<path fill="#1E1E1E" opacity="1.000000" stroke="none" 
	d="
M1059.230591,243.025543 
	C1059.638184,240.687897 1059.975952,238.708176 1059.978271,236.728104 
	C1060.011963,206.581238 1060.012329,176.434311 1059.994995,146.287399 
	C1059.990479,138.447815 1059.566406,138.055527 1051.838867,138.001740 
	C1044.011963,137.947250 1036.169312,138.186737 1028.362549,137.764053 
	C1021.080444,137.369766 1016.210754,133.396286 1014.514954,127.465195 
	C1013.045227,122.324913 1015.007935,115.738419 1019.981201,113.068123 
	C1023.465942,111.197044 1027.825684,110.168282 1031.806274,110.134193 
	C1059.952393,109.893181 1088.101685,110.005844 1116.249878,110.010696 
	C1117.415283,110.010895 1118.584229,110.013008 1119.745728,110.094910 
	C1128.955322,110.744263 1134.934204,116.287025 1134.893066,124.113335 
	C1134.851196,132.066742 1128.431885,137.776123 1119.069092,137.946030 
	C1111.243286,138.088043 1103.410400,138.132538 1095.586304,137.961151 
	C1090.974731,137.860138 1088.946045,139.568771 1088.962158,144.367233 
	C1089.067505,175.846191 1089.056763,207.325775 1088.974731,238.804855 
	C1088.963135,243.297302 1090.811890,245.124802 1095.258667,245.025040 
	C1102.083862,244.871933 1108.918213,244.886642 1115.742798,245.064011 
	C1118.709351,245.141113 1121.747559,245.480682 1124.602173,246.256348 
	C1131.526001,248.137741 1135.289429,253.515625 1134.852783,260.325989 
	C1134.436035,266.827606 1129.600098,271.807373 1122.614380,272.777496 
	C1120.810303,273.028046 1118.958374,272.988403 1117.128418,272.989166 
	C1088.647095,273.000854 1060.165527,273.057953 1031.684814,272.917145 
	C1028.283081,272.900330 1024.700073,272.277405 1021.530212,271.070892 
	C1016.274719,269.070526 1014.073669,264.525177 1014.201782,259.117828 
	C1014.328369,253.771530 1016.503174,249.212021 1021.816223,247.280243 
	C1025.195312,246.051651 1028.886108,245.294952 1032.476562,245.115570 
	C1039.288940,244.775238 1046.132935,245.121460 1052.956055,244.919144 
	C1054.985718,244.858978 1056.989136,243.919754 1059.230591,243.025543 
z"/>
<path fill="#1E1E1E" opacity="1.000000" stroke="none" 
	d="
M1515.012939,548.000000 
	C1511.016968,547.959839 1507.498779,548.140625 1504.023560,547.833313 
	C1496.838013,547.197876 1491.655273,542.065918 1491.159912,535.433777 
	C1490.637085,528.435364 1494.546631,522.991577 1501.787354,521.157288 
	C1504.659912,520.429688 1507.696167,520.128784 1510.668091,520.056824 
	C1517.496704,519.891479 1524.332642,519.917847 1531.163818,520.000977 
	C1535.084351,520.048584 1537.147949,518.448181 1536.977905,514.378113 
	C1536.936279,513.380554 1537.001709,512.378845 1537.001709,511.379089 
	C1537.003296,481.382751 1537.012817,451.386414 1536.995850,421.390076 
	C1536.991333,413.365479 1536.623779,413.032074 1528.433838,413.002930 
	C1521.601318,412.978638 1514.752930,413.256317 1507.942993,412.860321 
	C1504.380859,412.653229 1500.512817,411.963074 1497.449829,410.278625 
	C1492.975708,407.818207 1490.699585,403.387146 1491.162231,398.079865 
	C1491.634766,392.661621 1494.414185,388.484955 1499.484619,386.576935 
	C1502.508301,385.439209 1505.977051,385.081207 1509.248413,385.068115 
	C1537.077881,384.956696 1564.908081,384.976257 1592.737793,385.047455 
	C1595.707642,385.055054 1598.745361,385.347809 1601.630493,386.024719 
	C1607.646362,387.436188 1611.697021,392.621216 1611.891479,398.615540 
	C1612.075195,404.278778 1608.427002,409.837799 1602.888184,411.726532 
	C1600.570801,412.516785 1598.013428,412.869873 1595.553833,412.926453 
	C1588.558228,413.087433 1581.556763,412.979828 1574.557617,413.003357 
	C1566.376587,413.030884 1566.011475,413.365906 1566.007080,421.399872 
	C1565.990967,451.396210 1566.000244,481.392517 1566.000244,511.388855 
	C1566.000244,511.722137 1565.999512,512.055481 1566.003418,512.388733 
	C1566.085815,519.427612 1566.601196,519.947571 1573.846313,519.992249 
	C1580.845215,520.035400 1587.849731,519.868958 1594.841675,520.100220 
	C1600.265991,520.279541 1605.589111,521.386292 1609.136963,526.021057 
	C1615.642578,534.519653 1610.377075,546.321228 1599.489624,547.786560 
	C1597.355713,548.073730 1595.165039,547.990295 1593.000610,547.991333 
	C1567.170410,548.003723 1541.340210,547.999756 1515.012939,548.000000 
z"/>
<path fill="#000000" opacity="1.000000" stroke="none" 
	d="
M70.604050,400.922760 
	C58.742207,399.875153 47.335682,398.817108 35.932156,397.727692 
	C30.875269,397.244598 28.297037,394.335022 27.608500,389.373962 
	C25.096819,371.276855 21.701691,353.260895 20.115149,335.085571 
	C16.912107,298.391693 23.256657,262.760223 34.936131,228.074997 
	C47.463295,190.872314 66.905212,157.641571 93.065933,128.241943 
	C105.976219,113.733269 120.338478,100.974457 135.744354,89.307610 
	C137.362244,88.082382 140.824295,87.067345 141.988876,87.921257 
	C144.595978,89.832870 146.474503,92.855606 144.187347,96.596687 
	C142.280960,99.714928 140.590500,102.972206 138.926392,106.230209 
	C133.801193,116.264351 133.092850,126.961166 134.549332,137.885590 
	C136.119781,149.664886 144.668106,154.945129 154.677246,158.354248 
	C164.470718,161.689880 174.660370,161.244125 184.852036,160.672745 
	C193.149139,160.207581 201.475922,160.166412 209.789871,160.153107 
	C213.703430,160.146835 216.238541,162.236710 215.896759,166.386108 
	C215.312668,173.477219 215.172592,180.729080 213.483765,187.577499 
	C210.559387,199.436356 208.612701,211.010681 216.827835,221.424911 
	C219.846268,225.251343 223.960114,228.350021 227.974960,231.220200 
	C233.198776,234.954681 237.128677,238.994400 235.647980,246.063492 
	C234.112350,253.394836 229.694458,257.553802 222.352676,259.154541 
	C213.260803,261.136841 204.148148,263.172791 195.256592,265.881775 
	C186.812195,268.454529 180.100433,273.793701 174.416214,280.676453 
	C163.959213,293.338287 164.577774,304.642548 176.337051,318.766754 
	C182.697327,326.406128 183.518250,334.504456 177.529205,341.351562 
	C175.210587,344.002380 171.913910,346.221375 168.621826,347.514404 
	C160.125153,350.851654 151.581161,354.608978 142.694885,356.295685 
	C126.627747,359.345337 112.663162,366.033844 100.720245,376.933807 
	C95.731255,381.487152 90.997932,386.477478 86.966606,391.879700 
	C82.831718,397.420654 77.715790,400.277313 70.604050,400.922760 
z"/>
<path fill="#000000" opacity="1.000000" stroke="none" 
	d="
M488.883850,285.970764 
	C480.973480,282.413055 473.807739,285.134460 466.642639,287.247162 
	C456.759613,290.161255 446.957520,293.356567 437.041779,296.151154 
	C426.819305,299.032135 417.188202,296.275513 408.089172,291.829407 
	C401.803986,288.758270 400.912048,284.799072 402.549286,277.766693 
	C404.465363,269.536591 408.916473,263.413666 415.660706,258.462189 
	C426.558502,250.461334 430.676788,238.318314 433.675385,225.986237 
	C435.389832,218.935318 431.640411,213.167343 426.001007,208.702744 
	C417.316315,201.827209 416.916718,199.535782 423.889099,190.492279 
	C429.872559,182.731491 436.204224,175.219986 442.689911,167.870056 
	C452.396576,156.869965 452.001892,132.640778 437.057007,122.959381 
	C429.859833,118.296997 426.436798,110.941452 423.968140,102.921806 
	C419.904297,89.719788 418.613647,76.595673 422.978333,63.190838 
	C424.862762,57.403385 426.043854,56.672520 431.413666,59.197643 
	C465.725708,75.332695 495.963593,97.183037 521.481873,125.162735 
	C552.697632,159.389481 574.910767,198.774734 587.171997,243.655304 
	C594.635498,270.974762 598.568726,298.744720 597.885498,327.012909 
	C597.272644,352.370026 593.485168,377.356598 586.215576,401.733398 
	C585.754944,403.277985 585.014404,404.739075 585.383118,404.855652 
	C582.232239,402.465942 578.760132,400.396973 575.992554,397.624634 
	C568.586182,390.205261 558.922791,391.236298 549.821716,390.067017 
	C548.667847,389.918762 547.485657,389.985016 546.333984,389.826141 
	C540.359436,389.001923 538.478455,387.040924 539.975464,381.231079 
	C542.459534,371.590607 545.796753,362.173462 548.590088,352.608368 
	C553.011353,337.469025 551.761047,322.838623 543.120422,309.480560 
	C537.233093,300.378937 528.517151,295.333618 517.392517,296.095795 
	C510.339844,296.579010 504.394531,294.398773 498.609039,290.776337 
	C495.669556,288.935883 492.383026,287.649719 488.883850,285.970764 
z"/>
<path fill="#000000" opacity="1.000000" stroke="none" 
	d="
M381.228424,455.121094 
	C389.295563,452.321747 396.865082,449.204926 405.151764,453.498871 
	C408.248962,455.103729 409.503876,456.616608 409.262512,460.320953 
	C408.646362,469.777039 408.130127,479.283569 413.443848,487.985870 
	C418.010529,495.464661 423.508026,501.386353 432.279572,504.083191 
	C436.630615,505.420929 440.463287,508.380188 444.628204,510.404755 
	C449.369354,512.709412 454.053406,515.376099 459.070526,516.797119 
	C463.784851,518.132446 466.316193,520.552185 466.874847,525.219727 
	C467.328979,529.013977 467.325592,532.893555 468.115051,536.609985 
	C469.344666,542.398621 470.527313,548.310608 472.798157,553.721985 
	C474.150421,556.944458 474.084259,558.601685 471.229980,560.181519 
	C455.668701,568.794861 440.514008,578.282104 424.436340,585.792114 
	C397.254608,598.489014 368.289246,605.387756 338.488220,608.759338 
	C334.059357,609.260437 330.782715,608.306152 327.563324,604.632202 
	C313.804718,588.931274 311.721985,570.389771 313.341766,550.736633 
	C314.239716,539.841675 313.085052,529.134583 309.283112,518.862854 
	C305.306366,508.119080 296.527191,504.135284 285.890503,503.098999 
	C284.234436,502.937683 282.550354,503.003479 280.909393,502.760529 
	C277.622131,502.273773 275.750275,500.672943 276.533356,496.972534 
	C278.932983,485.633179 282.780945,475.261108 293.343445,468.686554 
	C297.276184,466.238647 300.821930,463.140839 304.416077,460.183716 
	C309.694946,455.840515 315.113312,454.873077 322.022827,456.635040 
	C332.091583,459.202637 342.505127,460.571472 352.843781,461.883362 
	C362.884003,463.157349 372.395874,461.132233 381.228424,455.121094 
z"/>
<path fill="#000000" opacity="1.000000" stroke="none" 
	d="
M1411.562012,199.717407 
	C1412.895020,195.057114 1414.209351,190.618423 1415.903076,186.329544 
	C1420.059570,175.804688 1424.377686,165.343536 1428.665161,154.870819 
	C1429.346313,153.207001 1430.205688,151.616135 1431.328979,149.267380 
	C1432.262939,150.766190 1432.943726,151.579239 1433.326050,152.514343 
	C1439.247559,166.994293 1445.116089,181.495911 1451.036255,195.976395 
	C1452.033936,198.416687 1452.757935,200.839096 1448.938232,200.861694 
	C1436.957275,200.932602 1424.975220,200.803909 1412.993774,200.709793 
	C1412.566040,200.706451 1412.141846,200.251572 1411.562012,199.717407 
z"/>
<path fill="#000000" opacity="1.000000" stroke="none" 
	d="
M1028.984741,447.930786 
	C1028.990112,438.111115 1029.122314,428.776764 1028.948364,419.448090 
	C1028.859985,414.711914 1030.824341,412.791626 1035.505737,412.979980 
	C1046.477417,413.421448 1057.468262,413.475647 1068.427368,414.103699 
	C1075.088379,414.485413 1080.939209,417.260254 1085.826294,421.964203 
	C1093.587280,429.434357 1093.825684,438.102203 1085.934692,445.442139 
	C1078.755615,452.119843 1069.799561,455.504456 1060.275391,456.806091 
	C1053.053833,457.793091 1045.680054,457.826172 1038.368286,457.955658 
	C1029.045898,458.120758 1029.043335,457.978302 1028.984741,447.930786 
z"/>
<path fill="#000000" opacity="1.000000" stroke="none" 
	d="
M1190.165283,423.161682 
	C1212.733154,400.177277 1245.157471,406.375977 1262.588501,434.558075 
	C1276.963257,457.798889 1272.616333,491.113556 1253.217407,510.284515 
	C1233.252930,530.014160 1204.148926,527.559692 1185.982544,506.117950 
	C1168.720703,485.743927 1169.006714,447.710052 1184.213379,429.704559 
	C1186.038818,427.543335 1188.010498,425.505646 1190.165283,423.161682 
z"/>
</svg>